<?xml version="1.0" encoding="UTF-8" standalone="no"?>
<svg
   xmlns:dc="http://purl.org/dc/elements/1.1/"
   xmlns:cc="http://creativecommons.org/ns#"
   xmlns:rdf="http://www.w3.org/1999/02/22-rdf-syntax-ns#"
   xmlns:svg="http://www.w3.org/2000/svg"
   xmlns="http://www.w3.org/2000/svg"
   xmlns:sodipodi="http://sodipodi.sourceforge.net/DTD/sodipodi-0.dtd"
   xmlns:inkscape="http://www.inkscape.org/namespaces/inkscape"
   width="33"
   height="33"
   viewBox="0 0 33 33"
   fill="none"
   version="1.1"
   id="svg8"
   sodipodi:docname="basket.svg"
   inkscape:version="1.0.2 (e86c870879, 2021-01-15)">
  <metadata
     id="metadata14">
    <rdf:RDF>
      <cc:Work
         rdf:about="">
        <dc:format>image/svg+xml</dc:format>
        <dc:type
           rdf:resource="http://purl.org/dc/dcmitype/StillImage" />
      </cc:Work>
    </rdf:RDF>
  </metadata>
  <defs
     id="defs12" />
  <sodipodi:namedview
     pagecolor="#ffffff"
     bordercolor="#666666"
     borderopacity="1"
     objecttolerance="10"
     gridtolerance="10"
     guidetolerance="10"
     inkscape:pageopacity="0"
     inkscape:pageshadow="2"
     inkscape:window-width="1366"
     inkscape:window-height="704"
     id="namedview10"
     showgrid="false"
     inkscape:zoom="4.9926024"
     inkscape:cx="31.134494"
     inkscape:cy="0.91021064"
     inkscape:window-x="0"
     inkscape:window-y="27"
     inkscape:window-maximized="1"
     inkscape:current-layer="svg8"
     inkscape:document-rotation="0" />
  <path
     d="M 24.0699,28.0177 H 8.64369 C 8.22768,28.0181 7.82356,27.8789 7.49594,27.6226 7.16833,27.3662 6.93616,27.0073 6.83655,26.6034 L 3.36631,12.7094 C 3.33245,12.5741 3.32989,12.4329 3.35883,12.2965 3.38776,12.1601 3.44744,12.0321 3.5333,11.9222 3.61917,11.8124 3.72897,11.7236 3.85434,11.6625 3.97971,11.6015 4.11735,11.5699 4.25679,11.5701 H 28.4568 c 0.1394,-2e-4 0.2771,0.0314 0.4024,0.0924 0.1254,0.0611 0.2352,0.1499 0.3211,0.2597 0.0858,0.1099 0.1455,0.2379 0.1745,0.3743 0.0289,0.1364 0.0263,0.2776 -0.0075,0.4129 L 28.023449,18.009686 25.877,26.6034 c -0.0996,0.4039 -0.3318,0.7628 -0.6594,1.0192 -0.3276,0.2563 -0.7317,0.3955 -1.1477,0.3951 z"
     stroke="#151515"
     stroke-width="3.27381"
     stroke-linecap="round"
     stroke-linejoin="round"
     id="path2"
     sodipodi:nodetypes="cccccccccccccccccc"
     style="stroke:#707070;stroke-opacity:1" />
  <path
     d="M13.4754 4.8392L9.67773 11.5702"
     stroke="#151515"
     stroke-width="3.27381"
     stroke-linecap="round"
     stroke-linejoin="round"
     id="path4"
     style="stroke:#707070;stroke-opacity:1" />
  <path
     d="M18.8193 4.8392L22.63 11.5702"
     stroke="#151515"
     stroke-width="3.27381"
     stroke-linecap="round"
     stroke-linejoin="round"
     id="path6"
     style="stroke:#707070;stroke-opacity:1" />
</svg>
