<?xml version="1.0" encoding="UTF-8" standalone="no"?>
<svg
   xmlns:dc="http://purl.org/dc/elements/1.1/"
   xmlns:cc="http://creativecommons.org/ns#"
   xmlns:rdf="http://www.w3.org/1999/02/22-rdf-syntax-ns#"
   xmlns:svg="http://www.w3.org/2000/svg"
   xmlns="http://www.w3.org/2000/svg"
   xmlns:sodipodi="http://sodipodi.sourceforge.net/DTD/sodipodi-0.dtd"
   xmlns:inkscape="http://www.inkscape.org/namespaces/inkscape"
   width="231.78999"
   height="65.480003"
   viewBox="0 0 61.327768 17.324918"
   version="1.1"
   id="svg8"
   inkscape:version="1.0.2 (e86c870879, 2021-01-15)"
   sodipodi:docname="brand.svg"
   inkscape:export-filename="/home/albeiro/Documentos/Desarrollo/frontend-ecommerce/src/assets/logo/brand.png"
   inkscape:export-xdpi="94.527344"
   inkscape:export-ydpi="94.527344">
  <defs
     id="defs2" />
  <sodipodi:namedview
     id="base"
     pagecolor="#ffffff"
     bordercolor="#666666"
     borderopacity="1.0"
     inkscape:pageopacity="0.0"
     inkscape:pageshadow="2"
     inkscape:zoom="2.9164331"
     inkscape:cx="116.01827"
     inkscape:cy="48.992552"
     inkscape:document-units="px"
     inkscape:current-layer="text926"
     inkscape:document-rotation="0"
     showgrid="false"
     inkscape:snap-smooth-nodes="false"
     inkscape:object-paths="false"
     inkscape:window-width="1366"
     inkscape:window-height="704"
     inkscape:window-x="0"
     inkscape:window-y="27"
     inkscape:window-maximized="1"
     units="px"
     inkscape:object-nodes="false"
     inkscape:snap-page="true" />
  <metadata
     id="metadata5">
    <rdf:RDF>
      <cc:Work
         rdf:about="">
        <dc:format>image/svg+xml</dc:format>
        <dc:type
           rdf:resource="http://purl.org/dc/dcmitype/StillImage" />
        <dc:title></dc:title>
      </cc:Work>
    </rdf:RDF>
  </metadata>
  <g
     inkscape:label="Capa 1"
     inkscape:groupmode="layer"
     id="layer1">
    <g
       id="g897">
      <g
         id="g914"
         transform="matrix(0.12226496,0,0,0.12226496,-4.3102264,-6.8058719)">
        <g
           id="g842"
           transform="matrix(0.84328591,0,0,0.84328591,5.5561979,19.826657)">
          <path
             id="path837"
             style="fill:#a9a9a9;fill-opacity:1;stroke:#cccccc;stroke-width:0.79375;paint-order:markers stroke fill"
             d="m 90.645275,76.493848 a 50.536284,50.536284 0 0 1 50.485805,50.535932 50.536284,50.536284 0 0 1 -50.536446,50.53645 50.536284,50.536284 0 0 1 -50.535418,-50.28892 32.672295,32.672295 0 0 0 0.003,0.24702 32.672295,32.672295 0 0 0 0.005,0.24701 32.672295,32.672295 0 0 0 0.006,0.24753 32.672295,32.672295 0 0 0 0.008,0.24701 32.672295,32.672295 0 0 0 0.0103,0.24702 32.672295,32.672295 0 0 0 0.0124,0.24701 32.672295,32.672295 0 0 0 0.0139,0.2465 32.672295,32.672295 0 0 0 0.016,0.24701 32.672295,32.672295 0 0 0 0.0176,0.24649 32.672295,32.672295 0 0 0 0.0196,0.2465 32.672295,32.672295 0 0 0 0.0217,0.2465 32.672295,32.672295 0 0 0 0.0233,0.24598 32.672295,32.672295 0 0 0 0.0253,0.24598 32.672295,32.672295 0 0 0 0.0269,0.24546 32.672295,32.672295 0 0 0 0.0289,0.24546 32.672295,32.672295 0 0 0 0.031,0.24547 32.672295,32.672295 0 0 0 0.0325,0.24494 32.672295,32.672295 0 0 0 0.0346,0.24495 32.672295,32.672295 0 0 0 0.0362,0.24443 32.672295,32.672295 0 0 0 0.0382,0.24443 32.672295,32.672295 0 0 0 0.0398,0.24391 32.672295,32.672295 0 0 0 0.0419,0.24391 32.672295,32.672295 0 0 0 0.0439,0.2434 32.672295,32.672295 0 0 0 0.0455,0.24288 32.672295,32.672295 0 0 0 0.0475,0.24236 32.672295,32.672295 0 0 0 0.0491,0.24236 32.672295,32.672295 0 0 0 0.0512,0.24185 32.672295,32.672295 0 0 0 0.0532,0.24185 32.672295,32.672295 0 0 0 0.0543,0.24081 32.672295,32.672295 0 0 0 0.0568,0.24081 32.672295,32.672295 0 0 0 0.0584,0.24029 32.672295,32.672295 0 0 0 0.0599,0.23978 32.672295,32.672295 0 0 0 0.062,0.23927 32.672295,32.672295 0 0 0 0.0641,0.23874 32.672295,32.672295 0 0 0 0.0656,0.23875 32.672295,32.672295 0 0 0 0.0672,0.23771 32.672295,32.672295 0 0 0 0.0692,0.23719 32.672295,32.672295 0 0 0 0.0713,0.23668 32.672295,32.672295 0 0 0 0.0729,0.23668 32.672295,32.672295 0 0 0 0.0744,0.23564 32.672295,32.672295 0 0 0 0.0765,0.23513 32.672295,32.672295 0 0 0 0.078,0.23461 32.672295,32.672295 0 0 0 0.0801,0.2341 32.672295,32.672295 0 0 0 0.0816,0.23306 32.672295,32.672295 0 0 0 0.0832,0.23254 32.672295,32.672295 0 0 0 0.0853,0.23255 32.672295,32.672295 0 0 0 0.0868,0.23099 32.672295,32.672295 0 0 0 0.0889,0.23099 32.672295,32.672295 0 0 0 0.0904,0.22996 32.672295,32.672295 0 0 0 0.092,0.22945 32.672295,32.672295 0 0 0 0.0941,0.22892 32.672295,32.672295 0 0 0 0.0956,0.2279 32.672295,32.672295 0 0 0 0.0977,0.22737 32.672295,32.672295 0 0 0 0.0987,0.22634 32.672295,32.672295 0 0 0 0.10128,0.22583 32.672295,32.672295 0 0 0 0.10232,0.22479 32.672295,32.672295 0 0 0 0.10439,0.22428 32.672295,32.672295 0 0 0 0.10593,0.22324 32.672295,32.672295 0 0 0 0.10749,0.22273 32.672295,32.672295 0 0 0 0.10904,0.22169 32.672295,32.672295 0 0 0 0.1111,0.22117 32.672295,32.672295 0 0 0 0.11266,0.22014 32.672295,32.672295 0 0 0 0.1142,0.21911 32.672295,32.672295 0 0 0 0.11576,0.21859 32.672295,32.672295 0 0 0 0.11782,0.21704 32.672295,32.672295 0 0 0 0.11937,0.21705 32.672295,32.672295 0 0 0 0.12092,0.21549 32.672295,32.672295 0 0 0 0.12248,0.21445 32.672295,32.672295 0 0 0 0.12402,0.21395 32.672295,32.672295 0 0 0 0.12557,0.2129 32.672295,32.672295 0 0 0 0.12713,0.21188 32.672295,32.672295 0 0 0 0.12919,0.21135 32.672295,32.672295 0 0 0 0.13074,0.20981 32.672295,32.672295 0 0 0 0.13178,0.20877 32.672295,32.672295 0 0 0 0.13384,0.20826 32.672295,32.672295 0 0 0 0.13539,0.2067 32.672295,32.672295 0 0 0 0.13643,0.20619 32.672295,32.672295 0 0 0 0.13849,0.20464 32.672295,32.672295 0 0 0 0.14004,0.20412 32.672295,32.672295 0 0 0 0.1416,0.20257 32.672295,32.672295 0 0 0 0.14262,0.20154 32.672295,32.672295 0 0 0 0.1447,0.20051 32.672295,32.672295 0 0 0 0.14624,0.19947 32.672295,32.672295 0 0 0 0.14728,0.19844 32.672295,32.672295 0 0 0 0.14934,0.1974 32.672295,32.672295 0 0 0 0.15038,0.19637 32.672295,32.672295 0 0 0 0.15193,0.19482 32.672295,32.672295 0 0 0 0.15348,0.19379 32.672295,32.672295 0 0 0 0.15503,0.19275 32.672295,32.672295 0 0 0 0.15606,0.19172 32.672295,32.672295 0 0 0 0.15813,0.19017 32.672295,32.672295 0 0 0 0.15916,0.18913 32.672295,32.672295 0 0 0 0.16072,0.18759 32.672295,32.672295 0 0 0 0.16226,0.18707 32.672295,32.672295 0 0 0 0.1633,0.185 32.672295,32.672295 0 0 0 0.16485,0.18448 32.672295,32.672295 0 0 0 0.1664,0.18294 32.672295,32.672295 0 0 0 0.16794,0.18138 32.672295,32.672295 0 0 0 0.16899,0.18035 32.672295,32.672295 0 0 0 0.17001,0.17932 32.672295,32.672295 0 0 0 0.17208,0.17777 32.672295,32.672295 0 0 0 0.17312,0.17673 32.672295,32.672295 0 0 0 0.17415,0.17518 32.672295,32.672295 0 0 0 0.17622,0.17364 32.672295,32.672295 0 0 0 0.17673,0.1726 32.672295,32.672295 0 0 0 0.17828,0.17156 32.672295,32.672295 0 0 0 0.17984,0.1695 32.672295,32.672295 0 0 0 0.18087,0.16847 32.672295,32.672295 0 0 0 0.18241,0.16743 32.672295,32.672295 0 0 0 0.18345,0.16536 32.672295,32.672295 0 0 0 0.18449,0.16433 32.672295,32.672295 0 0 0 0.18603,0.1633 32.672295,32.672295 0 0 0 0.18707,0.16123 32.672295,32.672295 0 0 0 0.18862,0.1602 32.672295,32.672295 0 0 0 0.18965,0.15864 32.672295,32.672295 0 0 0 0.19069,0.1571 32.672295,32.672295 0 0 0 0.19224,0.15606 32.672295,32.672295 0 0 0 0.19275,0.154 32.672295,32.672295 0 0 0 0.1943,0.15296 32.672295,32.672295 0 0 0 0.19586,0.15142 32.672295,32.672295 0 0 0 0.19637,0.14986 32.672295,32.672295 0 0 0 0.19792,0.14831 32.672295,32.672295 0 0 0 0.19895,0.14727 32.672295,32.672295 0 0 0 0.19999,0.14522 32.672295,32.672295 0 0 0 0.20102,0.14366 32.672295,32.672295 0 0 0 0.20206,0.14262 32.672295,32.672295 0 0 0 0.20308,0.14056 32.672295,32.672295 0 0 0 0.20413,0.13953 32.672295,32.672295 0 0 0 0.20567,0.13746 32.672295,32.672295 0 0 0 0.20619,0.13642 32.672295,32.672295 0 0 0 0.20722,0.13436 32.672295,32.672295 0 0 0 0.20877,0.13333 32.672295,32.672295 0 0 0 0.20929,0.13126 32.672295,32.672295 0 0 0 0.21033,0.1297 32.672295,32.672295 0 0 0 0.21135,0.12868 32.672295,32.672295 0 0 0 0.21239,0.12661 32.672295,32.672295 0 0 0 0.21291,0.12505 32.672295,32.672295 0 0 0 0.21446,0.12351 32.672295,32.672295 0 0 0 0.21497,0.12144 32.672295,32.672295 0 0 0 0.21601,0.1204 32.672295,32.672295 0 0 0 0.21704,0.11834 32.672295,32.672295 0 0 0 0.21807,0.11679 32.672295,32.672295 0 0 0 0.2186,0.11524 32.672295,32.672295 0 0 0 0.21962,0.11369 32.672295,32.672295 0 0 0 0.22066,0.11214 32.672295,32.672295 0 0 0 0.22117,0.11007 32.672295,32.672295 0 0 0 0.22221,0.10852 32.672295,32.672295 0 0 0 0.22273,0.10697 32.672295,32.672295 0 0 0 0.22376,0.10542 32.672295,32.672295 0 0 0 0.22479,0.10335 32.672295,32.672295 0 0 0 0.22531,0.10181 32.672295,32.672295 0 0 0 0.22582,0.10025 32.672295,32.672295 0 0 0 0.22686,0.0982 32.672295,32.672295 0 0 0 0.22738,0.0966 32.672295,32.672295 0 0 0 0.22841,0.0951 32.672295,32.672295 0 0 0 0.22893,0.093 32.672295,32.672295 0 0 0 0.22996,0.0915 32.672295,32.672295 0 0 0 0.23047,0.0899 32.672295,32.672295 0 0 0 0.231,0.0879 32.672295,32.672295 0 0 0 0.23151,0.0863 32.672295,32.672295 0 0 0 0.23254,0.0842 32.672295,32.672295 0 0 0 0.23306,0.0827 32.672295,32.672295 0 0 0 0.23358,0.0811 32.672295,32.672295 0 0 0 0.23409,0.0791 32.672295,32.672295 0 0 0 0.23461,0.0775 32.672295,32.672295 0 0 0 0.23565,0.0754 32.672295,32.672295 0 0 0 0.23564,0.0739 32.672295,32.672295 0 0 0 0.23668,0.0724 32.672295,32.672295 0 0 0 0.2372,0.0703 32.672295,32.672295 0 0 0 0.23719,0.0682 32.672295,32.672295 0 0 0 0.23823,0.0667 32.672295,32.672295 0 0 0 0.23875,0.0651 32.672295,32.672295 0 0 0 0.23874,0.063 32.672295,32.672295 0 0 0 0.23978,0.061 32.672295,32.672295 0 0 0 0.23978,0.0594 32.672295,32.672295 0 0 0 0.24081,0.0579 32.672295,32.672295 0 0 0 0.24081,0.0558 32.672295,32.672295 0 0 0 0.24133,0.0537 32.672295,32.672295 0 0 0 0.24133,0.0522 32.672295,32.672295 0 0 0 0.24236,0.0501 32.672295,32.672295 0 0 0 0.24236,0.0486 32.672295,32.672295 0 0 0 0.24288,0.0465 32.672295,32.672295 0 0 0 0.24288,0.045 32.672295,32.672295 0 0 0 0.2434,0.0429 32.672295,32.672295 0 0 0 0.24391,0.0413 32.672295,32.672295 0 0 0 0.24391,0.0393 32.672295,32.672295 0 0 0 0.24443,0.0372 32.672295,32.672295 0 0 0 0.24495,0.0357 32.672295,32.672295 0 0 0 0.24495,0.0336 32.672295,32.672295 0 0 0 0.24494,0.032 32.672295,32.672295 0 0 0 0.24547,0.03 32.672295,32.672295 0 0 0 0.24546,0.0284 32.672295,32.672295 0 0 0 0.24598,0.0258 32.672295,32.672295 0 0 0 0.24598,0.0248 32.672295,32.672295 0 0 0 0.2465,0.0222 32.672295,32.672295 0 0 0 0.24598,0.0207 32.672295,32.672295 0 0 0 0.24701,0.0191 32.672295,32.672295 0 0 0 0.24649,0.0171 32.672295,32.672295 0 0 0 0.2465,0.015 32.672295,32.672295 0 0 0 0.24702,0.0134 32.672295,32.672295 0 0 0 0.24701,0.0114 32.672295,32.672295 0 0 0 0.24701,0.009 32.672295,32.672295 0 0 0 0.24702,0.008 32.672295,32.672295 0 0 0 0.24752,0.006 32.672295,32.672295 0 0 0 0.24702,0.004 32.672295,32.672295 0 0 0 0.24701,0.002 32.672295,32.672295 0 0 0 0.14366,5.1e-4 32.672295,32.672295 0 0 0 0.24701,-0.001 32.672295,32.672295 0 0 0 0.24754,-0.003 32.672295,32.672295 0 0 0 0.24701,-0.005 32.672295,32.672295 0 0 0 0.24701,-0.007 32.672295,32.672295 0 0 0 0.24753,-0.008 32.672295,32.672295 0 0 0 0.24702,-0.0103 32.672295,32.672295 0 0 0 0.24649,-0.0124 32.672295,32.672295 0 0 0 0.24701,-0.0139 32.672295,32.672295 0 0 0 0.24702,-0.016 32.672295,32.672295 0 0 0 0.2465,-0.0176 32.672295,32.672295 0 0 0 0.24649,-0.0196 32.672295,32.672295 0 0 0 0.24598,-0.0212 32.672295,32.672295 0 0 0 0.2465,-0.0238 32.672295,32.672295 0 0 0 0.24598,-0.0248 32.672295,32.672295 0 0 0 0.24546,-0.0274 32.672295,32.672295 0 0 0 0.24546,-0.0289 32.672295,32.672295 0 0 0 0.24547,-0.0305 32.672295,32.672295 0 0 0 0.244944,-0.0331 32.672295,32.672295 0 0 0 0.244946,-0.0341 32.672295,32.672295 0 0 0 0.24443,-0.0367 32.672295,32.672295 0 0 0 0.24443,-0.0382 32.672295,32.672295 0 0 0 0.243911,-0.0398 32.672295,32.672295 0 0 0 0.243396,-0.0419 32.672295,32.672295 0 0 0 0.243395,-0.0439 32.672295,32.672295 0 0 0 0.243399,-0.0455 32.672295,32.672295 0 0 0 0.242361,-0.0476 32.672295,32.672295 0 0 0 0.242363,-0.0491 32.672295,32.672295 0 0 0 0.241845,-0.0512 32.672295,32.672295 0 0 0 0.241329,-0.0527 32.672295,32.672295 0 0 0 0.241329,-0.0548 32.672295,32.672295 0 0 0 0.240811,-0.0568 32.672295,32.672295 0 0 0 0.240297,-0.0584 32.672295,32.672295 0 0 0 0.239779,-0.06 32.672295,32.672295 0 0 0 0.239262,-0.062 32.672295,32.672295 0 0 0 0.238745,-0.0641 32.672295,32.672295 0 0 0 0.238228,-0.0656 32.672295,32.672295 0 0 0 0.238228,-0.0672 32.672295,32.672295 0 0 0 0.237194,-0.0693 32.672295,32.672295 0 0 0 0.23668,-0.0708 32.672295,32.672295 0 0 0 0.236159,-0.0729 32.672295,32.672295 0 0 0 0.236162,-0.0749 32.672295,32.672295 0 0 0 0.235127,-0.076 32.672295,32.672295 0 0 0 0.234096,-0.0785 32.672295,32.672295 0 0 0 0.234095,-0.0796 32.672295,32.672295 0 0 0 0.233577,-0.0816 32.672295,32.672295 0 0 0 0.232542,-0.0837 32.672295,32.672295 0 0 0 0.232029,-0.0853 32.672295,32.672295 0 0 0 0.231511,-0.0868 32.672295,32.672295 0 0 0 0.230991,-0.0889 32.672295,32.672295 0 0 0 0.22996,-0.0904 32.672295,32.672295 0 0 0 0.229444,-0.092 32.672295,32.672295 0 0 0 0.22841,-0.0941 32.672295,32.672295 0 0 0 0.228409,-0.0956 32.672295,32.672295 0 0 0 0.226862,-0.0971 32.672295,32.672295 0 0 0 0.226859,-0.0992 32.672295,32.672295 0 0 0 0.225825,-0.10077 32.672295,32.672295 0 0 0 0.224792,-0.10284 32.672295,32.672295 0 0 0 0.224277,-0.10387 32.672295,32.672295 0 0 0 0.223242,-0.10593 32.672295,32.672295 0 0 0 0.222726,-0.10801 32.672295,32.672295 0 0 0 0.221692,-0.10903 32.672295,32.672295 0 0 0 0.221173,-0.11111 32.672295,32.672295 0 0 0 0.219626,-0.11265 32.672295,32.672295 0 0 0 0.219625,-0.11421 32.672295,32.672295 0 0 0 0.218075,-0.11575 32.672295,32.672295 0 0 0 0.217556,-0.11783 32.672295,32.672295 0 0 0 0.216524,-0.11885 32.672295,32.672295 0 0 0 0.216009,-0.12092 32.672295,32.672295 0 0 0 0.214458,-0.12248 32.672295,32.672295 0 0 0 0.213939,-0.12402 32.672295,32.672295 0 0 0 0.212908,-0.12609 32.672295,32.672295 0 0 0 0.211873,-0.12712 32.672295,32.672295 0 0 0 0.210841,-0.1292 32.672295,32.672295 0 0 0 0.210323,-0.13022 32.672295,32.672295 0 0 0 0.208772,-0.13229 32.672295,32.672295 0 0 0 0.20774,-0.13384 32.672295,32.672295 0 0 0 0.207222,-0.13488 32.672295,32.672295 0 0 0 0.205671,-0.13694 32.672295,32.672295 0 0 0 0.205155,-0.13849 32.672295,32.672295 0 0 0 0.203605,-0.14005 32.672295,32.672295 0 0 0 0.203089,-0.14107 32.672295,32.672295 0 0 0 0.201538,-0.14315 32.672295,32.672295 0 0 0 0.200504,-0.14469 32.672295,32.672295 0 0 0 0.199472,-0.14573 32.672295,32.672295 0 0 0 0.198438,-0.1478 32.672295,32.672295 0 0 0 0.197403,-0.14882 32.672295,32.672295 0 0 0 0.195855,-0.1509 32.672295,32.672295 0 0 0 0.195336,-0.15193 32.672295,32.672295 0 0 0 0.193787,-0.15348 32.672295,32.672295 0 0 0 0.192754,-0.15502 32.672295,32.672295 0 0 0 0.191201,-0.15607 32.672295,32.672295 0 0 0 0.190169,-0.15813 32.672295,32.672295 0 0 0 0.189138,-0.15916 32.672295,32.672295 0 0 0 0.1881,-0.16072 32.672295,32.672295 0 0 0 0.186552,-0.16174 32.672295,32.672295 0 0 0 0.185518,-0.16382 32.672295,32.672295 0 0 0 0.184486,-0.16484 32.672295,32.672295 0 0 0 0.182936,-0.1664 32.672295,32.672295 0 0 0 0.181382,-0.16743 32.672295,32.672295 0 0 0 0.180351,-0.16898 32.672295,32.672295 0 0 0 0.179318,-0.17054 32.672295,32.672295 0 0 0 0.177766,-0.17208 32.672295,32.672295 0 0 0 0.176734,-0.17312 32.672295,32.672295 0 0 0 0.175183,-0.17415 32.672295,32.672295 0 0 0 0.173633,-0.1757 32.672295,32.672295 0 0 0 0.172598,-0.17725 32.672295,32.672295 0 0 0 0.171051,-0.17828 32.672295,32.672295 0 0 0 0.170016,-0.17984 32.672295,32.672295 0 0 0 0.168465,-0.18086 32.672295,32.672295 0 0 0 0.166915,-0.1819 32.672295,32.672295 0 0 0 0.165881,-0.18397 32.672295,32.672295 0 0 0 0.16433,-0.18449 32.672295,32.672295 0 0 0 0.162782,-0.18603 32.672295,32.672295 0 0 0 0.161748,-0.18707 32.672295,32.672295 0 0 0 0.160194,-0.18862 32.672295,32.672295 0 0 0 0.158647,-0.18965 32.672295,32.672295 0 0 0 0.157096,-0.19069 32.672295,32.672295 0 0 0 0.155546,-0.19172 32.672295,32.672295 0 0 0 0.154514,-0.19327 32.672295,32.672295 0 0 0 0.152961,-0.1943 32.672295,32.672295 0 0 0 0.151413,-0.19534 32.672295,32.672295 0 0 0 0.149863,-0.19688 32.672295,32.672295 0 0 0 0.14831,-0.19793 32.672295,32.672295 0 0 0 0.146761,-0.19843 32.672295,32.672295 0 0 0 0.145728,-0.19999 32.672295,32.672295 0 0 0 0.14366,-0.20102 32.672295,32.672295 0 0 0 0.142627,-0.20257 32.672295,32.672295 0 0 0 0.14056,-0.20309 32.672295,32.672295 0 0 0 0.139528,-0.20412 32.672295,32.672295 0 0 0 0.137459,-0.20516 32.672295,32.672295 0 0 0 0.136424,-0.2067 32.672295,32.672295 0 0 0 0.13436,-0.20723 32.672295,32.672295 0 0 0 0.13281,-0.20825 32.672295,32.672295 0 0 0 0.13177,-0.20981 32.672295,32.672295 0 0 0 0.12971,-0.21032 32.672295,32.672295 0 0 0 0.12816,-0.21136 32.672295,32.672295 0 0 0 0.1266,-0.21239 32.672295,32.672295 0 0 0 0.12506,-0.2129 32.672295,32.672295 0 0 0 0.12351,-0.21446 32.672295,32.672295 0 0 0 0.12195,-0.21498 32.672295,32.672295 0 0 0 0.12041,-0.21601 32.672295,32.672295 0 0 0 0.11834,-0.21704 32.672295,32.672295 0 0 0 0.11679,-0.21807 32.672295,32.672295 0 0 0 0.11524,-0.21859 32.672295,32.672295 0 0 0 0.11368,-0.21963 32.672295,32.672295 0 0 0 0.11214,-0.22014 32.672295,32.672295 0 0 0 0.11007,-0.22169 32.672295,32.672295 0 0 0 0.10852,-0.22221 32.672295,32.672295 0 0 0 0.10697,-0.22272 32.672295,32.672295 0 0 0 0.10491,-0.22376 32.672295,32.672295 0 0 0 0.10387,-0.22428 32.672295,32.672295 0 0 0 0.1018,-0.22531 32.672295,32.672295 0 0 0 0.0997,-0.22634 32.672295,32.672295 0 0 0 0.0987,-0.22686 32.672295,32.672295 0 0 0 0.0966,-0.22738 32.672295,32.672295 0 0 0 0.0951,-0.22841 32.672295,32.672295 0 0 0 0.093,-0.22892 32.672295,32.672295 0 0 0 0.0915,-0.22996 32.672295,32.672295 0 0 0 0.0899,-0.22996 32.672295,32.672295 0 0 0 0.0879,-0.231 32.672295,32.672295 0 0 0 0.0863,-0.23202 32.672295,32.672295 0 0 0 0.0842,-0.23203 32.672295,32.672295 0 0 0 0.0827,-0.23306 32.672295,32.672295 0 0 0 0.0811,-0.23358 32.672295,32.672295 0 0 0 0.0791,-0.23461 32.672295,32.672295 0 0 0 0.0775,-0.23461 32.672295,32.672295 0 0 0 0.0754,-0.23565 32.672295,32.672295 0 0 0 0.0739,-0.23564 32.672295,32.672295 0 0 0 0.0718,-0.23668 32.672295,32.672295 0 0 0 0.0703,-0.23668 32.672295,32.672295 0 0 0 0.0687,-0.23771 32.672295,32.672295 0 0 0 0.0667,-0.23823 32.672295,32.672295 0 0 0 0.0646,-0.23874 32.672295,32.672295 0 0 0 0.063,-0.23875 32.672295,32.672295 0 0 0 0.0615,-0.23978 32.672295,32.672295 0 0 0 0.0594,-0.23977 32.672295,32.672295 0 0 0 0.0574,-0.2403 32.672295,32.672295 0 0 0 0.0558,-0.24081 32.672295,32.672295 0 0 0 0.0543,-0.24133 32.672295,32.672295 0 0 0 0.0522,-0.24185 32.672295,32.672295 0 0 0 0.0501,-0.24184 32.672295,32.672295 0 0 0 0.0486,-0.24288 32.672295,32.672295 0 0 0 0.0465,-0.24236 32.672295,32.672295 0 0 0 0.045,-0.2434 32.672295,32.672295 0 0 0 0.0429,-0.2434 32.672295,32.672295 0 0 0 0.0413,-0.24391 32.672295,32.672295 0 0 0 0.0393,-0.24391 32.672295,32.672295 0 0 0 0.0372,-0.24443 32.672295,32.672295 0 0 0 0.0357,-0.24495 32.672295,32.672295 0 0 0 0.0336,-0.24494 32.672295,32.672295 0 0 0 0.032,-0.24495 32.672295,32.672295 0 0 0 0.03,-0.24546 32.672295,32.672295 0 0 0 0.0279,-0.24547 32.672295,32.672295 0 0 0 0.0264,-0.24597 32.672295,32.672295 0 0 0 0.0243,-0.24598 32.672295,32.672295 0 0 0 0.0227,-0.24598 32.672295,32.672295 0 0 0 0.0207,-0.2465 32.672295,32.672295 0 0 0 0.0191,-0.2465 32.672295,32.672295 0 0 0 0.017,-0.24701 32.672295,32.672295 0 0 0 0.015,-0.2465 32.672295,32.672295 0 0 0 0.0129,-0.24701 32.672295,32.672295 0 0 0 0.0114,-0.24701 32.672295,32.672295 0 0 0 0.01,-0.24702 32.672295,32.672295 0 0 0 0.008,-0.24701 32.672295,32.672295 0 0 0 0.006,-0.24701 32.672295,32.672295 0 0 0 0.004,-0.24753 32.672295,32.672295 0 0 0 0.002,-0.24702 32.672295,32.672295 0 0 0 5.2e-4,-0.14366 32.672295,32.672295 0 0 0 -0.001,-0.24701 32.672295,32.672295 0 0 0 -0.003,-0.24753 32.672295,32.672295 0 0 0 -0.005,-0.24702 32.672295,32.672295 0 0 0 -0.006,-0.24701 32.672295,32.672295 0 0 0 -0.009,-0.24701 32.672295,32.672295 0 0 0 -0.01,-0.24702 32.672295,32.672295 0 0 0 -0.0124,-0.24701 32.672295,32.672295 0 0 0 -0.0139,-0.24701 32.672295,32.672295 0 0 0 -0.016,-0.2465 32.672295,32.672295 0 0 0 -0.0176,-0.24701 32.672295,32.672295 0 0 0 -0.0196,-0.24598 32.672295,32.672295 0 0 0 -0.0217,-0.2465 32.672295,32.672295 0 0 0 -0.0233,-0.24598 32.672295,32.672295 0 0 0 -0.0253,-0.24598 32.672295,32.672295 0 0 0 -0.0269,-0.24598 32.672295,32.672295 0 0 0 -0.0289,-0.24546 32.672295,32.672295 0 0 0 -0.031,-0.24546 32.672295,32.672295 0 0 0 -0.0326,-0.24495 32.672295,32.672295 0 0 0 -0.0346,-0.24495 32.672295,32.672295 0 0 0 -0.0362,-0.24443 32.672295,32.672295 0 0 0 -0.0382,-0.24443 32.672295,32.672295 0 0 0 -0.0398,-0.24391 32.672295,32.672295 0 0 0 -0.0419,-0.2434 32.672295,32.672295 0 0 0 -0.0439,-0.24339 32.672295,32.672295 0 0 0 -0.0455,-0.24288 32.672295,32.672295 0 0 0 -0.0475,-0.24288 32.672295,32.672295 0 0 0 -0.0491,-0.24236 32.672295,32.672295 0 0 0 -0.0512,-0.24185 32.672295,32.672295 0 0 0 -0.0532,-0.24132 32.672295,32.672295 0 0 0 -0.0543,-0.24133 32.672295,32.672295 0 0 0 -0.0568,-0.24082 32.672295,32.672295 0 0 0 -0.0584,-0.23978 32.672295,32.672295 0 0 0 -0.0599,-0.23977 32.672295,32.672295 0 0 0 -0.062,-0.23978 32.672295,32.672295 0 0 0 -0.0641,-0.23875 32.672295,32.672295 0 0 0 -0.0656,-0.23823 32.672295,32.672295 0 0 0 -0.0672,-0.23771 32.672295,32.672295 0 0 0 -0.0692,-0.23771 32.672295,32.672295 0 0 0 -0.0713,-0.23668 32.672295,32.672295 0 0 0 -0.0729,-0.23616 32.672295,32.672295 0 0 0 -0.0744,-0.23564 32.672295,32.672295 0 0 0 -0.0765,-0.23513 32.672295,32.672295 0 0 0 -0.078,-0.23461 32.672295,32.672295 0 0 0 -0.0801,-0.2341 32.672295,32.672295 0 0 0 -0.0817,-0.23357 32.672295,32.672295 0 0 0 -0.0832,-0.23255 32.672295,32.672295 0 0 0 -0.0853,-0.23202 32.672295,32.672295 0 0 0 -0.0868,-0.23152 32.672295,32.672295 0 0 0 -0.0889,-0.23047 32.672295,32.672295 0 0 0 -0.0904,-0.23048 32.672295,32.672295 0 0 0 -0.092,-0.22944 32.672295,32.672295 0 0 0 -0.094,-0.22841 32.672295,32.672295 0 0 0 -0.0956,-0.22789 32.672295,32.672295 0 0 0 -0.0977,-0.22738 32.672295,32.672295 0 0 0 -0.0992,-0.22634 32.672295,32.672295 0 0 0 -0.10077,-0.22583 32.672295,32.672295 0 0 0 -0.10232,-0.22531 32.672295,32.672295 0 0 0 -0.10439,-0.22427 32.672295,32.672295 0 0 0 -0.10593,-0.22325 32.672295,32.672295 0 0 0 -0.10749,-0.22272 32.672295,32.672295 0 0 0 -0.10904,-0.22169 32.672295,32.672295 0 0 0 -0.1111,-0.22066 32.672295,32.672295 0 0 0 -0.11266,-0.22015 32.672295,32.672295 0 0 0 -0.1142,-0.2191 32.672295,32.672295 0 0 0 -0.11576,-0.21859 32.672295,32.672295 0 0 0 -0.11782,-0.21756 32.672295,32.672295 0 0 0 -0.11937,-0.21653 32.672295,32.672295 0 0 0 -0.12093,-0.21549 32.672295,32.672295 0 0 0 -0.12247,-0.21497 32.672295,32.672295 0 0 0 -0.12402,-0.21394 32.672295,32.672295 0 0 0 -0.12558,-0.21291 32.672295,32.672295 0 0 0 -0.12712,-0.21187 32.672295,32.672295 0 0 0 -0.12919,-0.21084 32.672295,32.672295 0 0 0 -0.13074,-0.20981 32.672295,32.672295 0 0 0 -0.13178,-0.20929 32.672295,32.672295 0 0 0 -0.13384,-0.20774 32.672295,32.672295 0 0 0 -0.13539,-0.20722 32.672295,32.672295 0 0 0 -0.136427,-0.20567 32.672295,32.672295 0 0 0 -0.138494,-0.20516 32.672295,32.672295 0 0 0 -0.140041,-0.2036 32.672295,32.672295 0 0 0 -0.141594,-0.20257 32.672295,32.672295 0 0 0 -0.142627,-0.20206 32.672295,32.672295 0 0 0 -0.144695,-0.2005 32.672295,32.672295 0 0 0 -0.146243,-0.19947 32.672295,32.672295 0 0 0 -0.147278,-0.19844 32.672295,32.672295 0 0 0 -0.149346,-0.19741 32.672295,32.672295 0 0 0 -0.150379,-0.19585 32.672295,32.672295 0 0 0 -0.151926,-0.19482 32.672295,32.672295 0 0 0 -0.15348,-0.1943 32.672295,32.672295 0 0 0 -0.15503,-0.19224 32.672295,32.672295 0 0 0 -0.156062,-0.19172 32.672295,32.672295 0 0 0 -0.158131,-0.19017 32.672295,32.672295 0 0 0 -0.159162,-0.18913 32.672295,32.672295 0 0 0 -0.160714,-0.18811 32.672295,32.672295 0 0 0 -0.162266,-0.18655 32.672295,32.672295 0 0 0 -0.163295,-0.18552 32.672295,32.672295 0 0 0 -0.164849,-0.18396 32.672295,32.672295 0 0 0 -0.166399,-0.18294 32.672295,32.672295 0 0 0 -0.167947,-0.1819 32.672295,32.672295 0 0 0 -0.168982,-0.18035 32.672295,32.672295 0 0 0 -0.170015,-0.17932 32.672295,32.672295 0 0 0 -0.172083,-0.17777 32.672295,32.672295 0 0 0 -0.173117,-0.17621 32.672295,32.672295 0 0 0 -0.174148,-0.17518 32.672295,32.672295 0 0 0 -0.176218,-0.17416 32.672295,32.672295 0 0 0 -0.176734,-0.17259 32.672295,32.672295 0 0 0 -0.178282,-0.17105 32.672295,32.672295 0 0 0 -0.179834,-0.17002 32.672295,32.672295 0 0 0 -0.180869,-0.16846 32.672295,32.672295 0 0 0 -0.182417,-0.16692 32.672295,32.672295 0 0 0 -0.183452,-0.16588 32.672295,32.672295 0 0 0 -0.184483,-0.16433 32.672295,32.672295 0 0 0 -0.186037,-0.16278 32.672295,32.672295 0 0 0 -0.187068,-0.16175 32.672295,32.672295 0 0 0 -0.188619,-0.15968 32.672295,32.672295 0 0 0 -0.189653,-0.15864 32.672295,32.672295 0 0 0 -0.190685,-0.15762 32.672295,32.672295 0 0 0 -0.192236,-0.15554 32.672295,32.672295 0 0 0 -0.192754,-0.15452 32.672295,32.672295 0 0 0 -0.194302,-0.15296 32.672295,32.672295 0 0 0 -0.195855,-0.15141 32.672295,32.672295 0 0 0 -0.196372,-0.14986 32.672295,32.672295 0 0 0 -0.197918,-0.14831 32.672295,32.672295 0 0 0 -0.198957,-0.14676 32.672295,32.672295 0 0 0 -0.199988,-0.14522 32.672295,32.672295 0 0 0 -0.201019,-0.14417 32.672295,32.672295 0 0 0 -0.202055,-0.14211 32.672295,32.672295 0 0 0 -0.203089,-0.14108 A 32.672295,32.672295 0 0 0 91.033531,99.96557 32.672295,32.672295 0 0 0 90.82786,99.827595 32.672295,32.672295 0 0 0 90.62167,99.691686 32.672295,32.672295 0 0 0 90.414448,99.55681 32.672295,32.672295 0 0 0 90.205676,99.424002 32.672295,32.672295 0 0 0 89.996386,99.292226 32.672295,32.672295 0 0 0 89.786063,99.16252 32.672295,32.672295 0 0 0 89.574706,99.034361 32.672295,32.672295 0 0 0 89.362317,98.907755 32.672295,32.672295 0 0 0 89.149409,98.782697 32.672295,32.672295 0 0 0 88.934951,98.65919 32.672295,32.672295 0 0 0 88.719977,98.537235 32.672295,32.672295 0 0 0 88.503972,98.417345 32.672295,32.672295 0 0 0 88.286931,98.298488 32.672295,32.672295 0 0 0 88.068856,98.181701 32.672295,32.672295 0 0 0 87.850263,98.066462 32.672295,32.672295 0 0 0 87.63064,97.952773 32.672295,32.672295 0 0 0 87.40998,97.841154 32.672295,32.672295 0 0 0 87.188805,97.730566 32.672295,32.672295 0 0 0 86.966597,97.622044 32.672295,32.672295 0 0 0 86.743871,97.515073 32.672295,32.672295 0 0 0 86.520112,97.410171 32.672295,32.672295 0 0 0 86.29532,97.30682 a 32.672295,32.672295 0 0 0 -0.225309,-0.101804 32.672295,32.672295 0 0 0 -0.225827,-0.100253 32.672295,32.672295 0 0 0 -0.226859,-0.0987 32.672295,32.672295 0 0 0 -0.227375,-0.09664 32.672295,32.672295 0 0 0 -0.228409,-0.09457 32.672295,32.672295 0 0 0 -0.228929,-0.09354 32.672295,32.672295 0 0 0 -0.229959,-0.09147 32.672295,32.672295 0 0 0 -0.230476,-0.0894 32.672295,32.672295 0 0 0 -0.230995,-0.08837 32.672295,32.672295 0 0 0 -0.23151,-0.08578 32.672295,32.672295 0 0 0 -0.232545,-0.08475 32.672295,32.672295 0 0 0 -0.233061,-0.08268 32.672295,32.672295 0 0 0 -0.233577,-0.08113 32.672295,32.672295 0 0 0 -0.234093,-0.07906 32.672295,32.672295 0 0 0 -0.234611,-0.07752 32.672295,32.672295 0 0 0 -0.235646,-0.07545 32.672295,32.672295 0 0 0 -0.235643,-0.0739 32.672295,32.672295 0 0 0 -0.236678,-0.07183 32.672295,32.672295 0 0 0 -0.237196,-0.07028 32.672295,32.672295 0 0 0 -0.237194,-0.06873 32.672295,32.672295 0 0 0 -0.238228,-0.06666 32.672295,32.672295 0 0 0 -0.238747,-0.0646 32.672295,32.672295 0 0 0 -0.238744,-0.06305 32.672295,32.672295 0 0 0 -0.239778,-0.0615 32.672295,32.672295 0 0 0 -0.239779,-0.05943 32.672295,32.672295 0 0 0 -0.240813,-0.05736 32.672295,32.672295 0 0 0 -0.240811,-0.05581 32.672295,32.672295 0 0 0 -0.241329,-0.05426 32.672295,32.672295 0 0 0 -0.241329,-0.05219 32.672295,32.672295 0 0 0 -0.242364,-0.05013 32.672295,32.672295 0 0 0 -0.242361,-0.04857 32.672295,32.672295 0 0 0 -0.242879,-0.04651 32.672295,32.672295 0 0 0 -0.24288,-0.04496 32.672295,32.672295 0 0 0 -0.243395,-0.04289 32.672295,32.672295 0 0 0 -0.243914,-0.04083 32.672295,32.672295 0 0 0 -0.24443,-0.03927 32.672295,32.672295 0 0 0 -0.243912,-0.03772 32.672295,32.672295 0 0 0 -0.244946,-0.03566 32.672295,32.672295 0 0 0 -0.244946,-0.03359 32.672295,32.672295 0 0 0 -0.244947,-0.03204 32.672295,32.672295 0 0 0 -0.24546,-0.02997 32.672295,32.672295 0 0 0 -0.24546,-0.0279 32.672295,32.672295 0 0 0 -0.24598,-0.02636 32.672295,32.672295 0 0 0 -0.24598,-0.02429 32.672295,32.672295 0 0 0 -0.2465,-0.02274 32.672295,32.672295 0 0 0 -0.24598,-0.02067 32.672295,32.672295 0 0 0 -0.24701,-0.0186 32.672295,32.672295 0 0 0 -0.2465,-0.01705 32.672295,32.672295 0 0 0 -0.2465,-0.0155 32.672295,32.672295 0 0 0 -0.24701,-0.01292 32.672295,32.672295 0 0 0 -0.24701,-0.01137 32.672295,32.672295 0 0 0 -0.24702,-0.0098 32.672295,32.672295 0 0 0 -0.24701,-0.0072 32.672295,32.672295 0 0 0 -0.24753,-0.0057 32.672295,32.672295 0 0 0 -0.24701,-0.0041 32.672295,32.672295 0 0 0 -0.24702,-0.0021 32.672295,32.672295 0 0 0 -0.14366,0 32.672295,32.672295 0 0 0 -0.24701,5.16e-4 32.672295,32.672295 0 0 0 -0.24753,0.0031 32.672295,32.672295 0 0 0 -0.24701,0.0047 32.672295,32.672295 0 0 0 -0.24702,0.0062 32.672295,32.672295 0 0 0 -0.24753,0.0088 32.672295,32.672295 0 0 0 -0.24701,0.01033 32.672295,32.672295 0 0 0 -0.2465,0.01189 32.672295,32.672295 0 0 0 -0.24701,0.01395 32.672295,32.672295 0 0 0 -0.24702,0.01602 32.672295,32.672295 0 0 0 -0.24649,0.01757 32.672295,32.672295 0 0 0 -0.2465,0.01964 32.672295,32.672295 0 0 0 -0.24598,0.0217 32.672295,32.672295 0 0 0 -0.2465,0.02325 32.672295,32.672295 0 0 0 -0.24597,0.02532 32.672295,32.672295 0 0 0 -0.24547,0.02687 32.672295,32.672295 0 0 0 -0.24546,0.02894 32.672295,32.672295 0 0 0 -0.24546,0.031 32.672295,32.672295 0 0 0 -0.24495,0.03256 32.672295,32.672295 0 0 0 -0.24495,0.03462 32.672295,32.672295 0 0 0 -0.24443,0.03617 32.672295,32.672295 0 0 0 -0.24443,0.03824 32.672295,32.672295 0 0 0 -0.24391,0.04031 32.672295,32.672295 0 0 0 -0.24339,0.04186 32.672295,32.672295 0 0 0 -0.2434,0.04341 32.672295,32.672295 0 0 0 -0.2434,0.04599 32.672295,32.672295 0 0 0 -0.24236,0.04702 32.672295,32.672295 0 0 0 -0.24236,0.04961 32.672295,32.672295 0 0 0 -0.24185,0.05064 32.672295,32.672295 0 0 0 -0.24133,0.05323 32.672295,32.672295 0 0 0 -0.24132,0.05478 32.672295,32.672295 0 0 0 -0.24082,0.05633 32.672295,32.672295 0 0 0 -0.24029,0.05839 32.672295,32.672295 0 0 0 -0.23978,0.06046 32.672295,32.672295 0 0 0 -0.23926,0.06201 32.672295,32.672295 0 0 0 -0.23875,0.06356 32.672295,32.672295 0 0 0 -0.23823,0.06563 32.672295,32.672295 0 0 0 -0.23822,0.06769 32.672295,32.672295 0 0 0 -0.2372,0.06873 32.672295,32.672295 0 0 0 -0.23668,0.07131 32.672295,32.672295 0 0 0 -0.23616,0.07286 32.672295,32.672295 0 0 0 -0.23616,0.07441 32.672295,32.672295 0 0 0 -0.23513,0.07648 32.672295,32.672295 0 0 0 -0.23461,0.07803 32.672295,32.672295 0 0 0 -0.23358,0.0801 32.672295,32.672295 0 0 0 -0.23357,0.08165 32.672295,32.672295 0 0 0 -0.23255,0.0832 32.672295,32.672295 0 0 0 -0.23203,0.08526 32.672295,32.672295 0 0 0 -0.23151,0.08733 32.672295,32.672295 0 0 0 -0.23099,0.08837 32.672295,32.672295 0 0 0 -0.22996,0.09043 32.672295,32.672295 0 0 0 -0.22944,0.0925 32.672295,32.672295 0 0 0 -0.22841,0.09354 32.672295,32.672295 0 0 0 -0.22841,0.09612 32.672295,32.672295 0 0 0 -0.22686,0.09715 32.672295,32.672295 0 0 0 -0.22686,0.09922 32.672295,32.672295 0 0 0 -0.22583,0.100769 32.672295,32.672295 0 0 0 -0.22479,0.102318 32.672295,32.672295 0 0 0 -0.22428,0.104388 32.672295,32.672295 0 0 0 -0.22324,0.105937 32.672295,32.672295 0 0 0 -0.22272,0.107487 32.672295,32.672295 0 0 0 -0.2217,0.109037 32.672295,32.672295 0 0 0 -0.22117,0.111104 32.672295,32.672295 0 0 0 -0.21962,0.112654 32.672295,32.672295 0 0 0 -0.21963,0.114205 32.672295,32.672295 0 0 0 -0.21807,0.116271 32.672295,32.672295 0 0 0 -0.21756,0.117306 32.672295,32.672295 0 0 0 -0.21652,0.119372 32.672295,32.672295 0 0 0 -0.21601,0.120925 32.672295,32.672295 0 0 0 -0.21446,0.122473 32.672295,32.672295 0 0 0 -0.21394,0.124023 32.672295,32.672295 0 0 0 -0.21291,0.125574 32.672295,32.672295 0 0 0 -0.21187,0.127641 32.672295,32.672295 0 0 0 -0.21084,0.128674 32.672295,32.672295 0 0 0 -0.21033,0.130742 32.672295,32.672295 0 0 0 -0.20877,0.131773 32.672295,32.672295 0 0 0 -0.20774,0.133842 32.672295,32.672295 0 0 0 -0.20722,0.135392 32.672295,32.672295 0 0 0 -0.20567,0.136943 32.672295,32.672295 0 0 0 -0.20516,0.137981 32.672295,32.672295 0 0 0 -0.2036,0.14004 32.672295,32.672295 0 0 0 -0.20309,0.1416 32.672295,32.672295 0 0 0 -0.20154,0.14314 32.672295,32.672295 0 0 0 -0.2005,0.14417 32.672295,32.672295 0 0 0 -0.19947,0.14625 32.672295,32.672295 0 0 0 -0.19844,0.14728 32.672295,32.672295 0 0 0 -0.1974,0.14934 32.672295,32.672295 0 0 0 -0.19586,0.15038 32.672295,32.672295 0 0 0 -0.19534,0.15193 32.672295,32.672295 0 0 0 -0.19378,0.15348 32.672295,32.672295 0 0 0 -0.19276,0.15503 32.672295,32.672295 0 0 0 -0.1912,0.15658 32.672295,32.672295 0 0 0 -0.19069,0.15761 32.672295,32.672295 0 0 0 -0.18861,0.15916 32.672295,32.672295 0 0 0 -0.1881,0.16072 32.672295,32.672295 0 0 0 -0.18656,0.16226 32.672295,32.672295 0 0 0 -0.18551,0.1633 32.672295,32.672295 0 0 0 -0.18449,0.16536 32.672295,32.672295 0 0 0 -0.18294,0.16588 32.672295,32.672295 0 0 0 -0.18138,0.16795 32.672295,32.672295 0 0 0 -0.18035,0.16899 32.672295,32.672295 0 0 0 -0.17932,0.17053 32.672295,32.672295 0 0 0 -0.17776,0.17156 32.672295,32.672295 0 0 0 -0.17674,0.17312 32.672295,32.672295 0 0 0 -0.17518,0.17467 32.672295,32.672295 0 0 0 -0.17363,0.1757 32.672295,32.672295 0 0 0 -0.1726,0.17673 32.672295,32.672295 0 0 0 -0.17105,0.1788 32.672295,32.672295 0 0 0 -0.17002,0.17932 32.672295,32.672295 0 0 0 -0.16846,0.18086 32.672295,32.672295 0 0 0 -0.16692,0.18242 32.672295,32.672295 0 0 0 -0.16588,0.18345 32.672295,32.672295 0 0 0 -0.16433,0.185 32.672295,32.672295 0 0 0 -0.16278,0.18553 32.672295,32.672295 0 0 0 -0.16175,0.18758 32.672295,32.672295 0 0 0 -0.16019,0.1881 32.672295,32.672295 0 0 0 -0.15865,0.18965 32.672295,32.672295 0 0 0 -0.1571,0.19069 32.672295,32.672295 0 0 0 -0.15554,0.19224 32.672295,32.672295 0 0 0 -0.15452,0.19327 32.672295,32.672295 0 0 0 -0.15296,0.1943 32.672295,32.672295 0 0 0 -0.15141,0.19534 32.672295,32.672295 0 0 0 -0.14986,0.19637 32.672295,32.672295 0 0 0 -0.14831,0.19792 32.672295,32.672295 0 0 0 -0.14676,0.19895 32.672295,32.672295 0 0 0 -0.14573,0.19999 32.672295,32.672295 0 0 0 -0.14366,0.20102 32.672295,32.672295 0 0 0 -0.14263,0.20206 32.672295,32.672295 0 0 0 -0.14056,0.20309 32.672295,32.672295 0 0 0 -0.13953,0.20463 32.672295,32.672295 0 0 0 -0.13746,0.20516 32.672295,32.672295 0 0 0 -0.13642,0.20619 32.672295,32.672295 0 0 0 -0.13436,0.20774 32.672295,32.672295 0 0 0 -0.13332,0.20825 32.672295,32.672295 0 0 0 -0.13126,0.20929 32.672295,32.672295 0 0 0 -0.12971,0.21033 32.672295,32.672295 0 0 0 -0.12816,0.21135 32.672295,32.672295 0 0 0 -0.12661,0.21239 32.672295,32.672295 0 0 0 -0.12505,0.21343 32.672295,32.672295 0 0 0 -0.12351,0.21394 32.672295,32.672295 0 0 0 -0.12196,0.21549 32.672295,32.672295 0 0 0 -0.1204,0.216 32.672295,32.672295 0 0 0 -0.11834,0.21704 32.672295,32.672295 0 0 0 -0.11679,0.21756 32.672295,32.672295 0 0 0 -0.11524,0.21859 32.672295,32.672295 0 0 0 -0.11368,0.21963 32.672295,32.672295 0 0 0 -0.11214,0.22066 32.672295,32.672295 0 0 0 -0.11008,0.22117 32.672295,32.672295 0 0 0 -0.10851,0.22221 32.672295,32.672295 0 0 0 -0.10697,0.22273 32.672295,32.672295 0 0 0 -0.10491,0.22376 32.672295,32.672295 0 0 0 -0.10387,0.22479 32.672295,32.672295 0 0 0 -0.1018,0.22531 32.672295,32.672295 0 0 0 -0.0997,0.22582 32.672295,32.672295 0 0 0 -0.0987,0.22686 32.672295,32.672295 0 0 0 -0.0966,0.2279 32.672295,32.672295 0 0 0 -0.0951,0.22789 32.672295,32.672295 0 0 0 -0.093,0.22944 32.672295,32.672295 0 0 0 -0.0915,0.22945 32.672295,32.672295 0 0 0 -0.0899,0.23047 32.672295,32.672295 0 0 0 -0.0879,0.231 32.672295,32.672295 0 0 0 -0.0863,0.23151 32.672295,32.672295 0 0 0 -0.0842,0.23254 32.672295,32.672295 0 0 0 -0.0827,0.23306 32.672295,32.672295 0 0 0 -0.0811,0.23358 32.672295,32.672295 0 0 0 -0.0791,0.23409 32.672295,32.672295 0 0 0 -0.0775,0.23513 32.672295,32.672295 0 0 0 -0.0754,0.23513 32.672295,32.672295 0 0 0 -0.0739,0.23616 32.672295,32.672295 0 0 0 -0.0718,0.23616 32.672295,32.672295 0 0 0 -0.0703,0.2372 32.672295,32.672295 0 0 0 -0.0687,0.23771 32.672295,32.672295 0 0 0 -0.0667,0.23771 32.672295,32.672295 0 0 0 -0.0646,0.23874 32.672295,32.672295 0 0 0 -0.063,0.23927 32.672295,32.672295 0 0 0 -0.0615,0.23926 32.672295,32.672295 0 0 0 -0.0594,0.24029 32.672295,32.672295 0 0 0 -0.0574,0.2403 32.672295,32.672295 0 0 0 -0.0558,0.24081 32.672295,32.672295 0 0 0 -0.0543,0.24133 32.672295,32.672295 0 0 0 -0.0522,0.24185 32.672295,32.672295 0 0 0 -0.0501,0.24184 32.672295,32.672295 0 0 0 -0.0486,0.24236 32.672295,32.672295 0 0 0 -0.0465,0.24288 32.672295,32.672295 0 0 0 -0.045,0.24288 32.672295,32.672295 0 0 0 -0.0429,0.24391 32.672295,32.672295 0 0 0 -0.0413,0.2434 32.672295,32.672295 0 0 0 -0.0393,0.24443 32.672295,32.672295 0 0 0 -0.0372,0.24443 32.672295,32.672295 0 0 0 -0.0357,0.24443 32.672295,32.672295 0 0 0 -0.0336,0.24495 32.672295,32.672295 0 0 0 -0.032,0.24546 32.672295,32.672295 0 0 0 -0.03,0.24495 32.672295,32.672295 0 0 0 -0.0279,0.24597 32.672295,32.672295 0 0 0 -0.0263,0.24547 32.672295,32.672295 0 0 0 -0.0243,0.2465 32.672295,32.672295 0 0 0 -0.0227,0.24598 32.672295,32.672295 0 0 0 -0.0207,0.24649 32.672295,32.672295 0 0 0 -0.0191,0.2465 32.672295,32.672295 0 0 0 -0.017,0.2465 32.672295,32.672295 0 0 0 -0.015,0.24701 32.672295,32.672295 0 0 0 -0.0129,0.24649 32.672295,32.672295 0 0 0 -0.0114,0.24702 32.672295,32.672295 0 0 0 -0.01,0.24701 32.672295,32.672295 0 0 0 -0.008,0.24753 32.672295,32.672295 0 0 0 -0.006,0.24701 32.672295,32.672295 0 0 0 -0.004,0.24702 32.672295,32.672295 0 0 0 -0.002,0.24753 50.536284,50.536284 0 0 1 50.535937,-50.392795 50.536284,50.536284 0 0 1 0.05064,0 z" />
          <path
             id="path837-3"
             style="fill:#1b3b30;fill-opacity:1;stroke:#808080;stroke-width:0.826692;paint-order:markers stroke fill"
             d="m 88.448736,73.881477 c -29.04806,0.02902 -52.58084,23.585167 -52.58103,52.633243 -10e-5,29.06887 23.5649,52.63387 52.633773,52.63378 28.968071,-1.5e-4 52.490911,-23.40825 52.632701,-52.37598 -7.1e-4,0.0858 -0.002,0.17151 -0.003,0.25726 -0.001,0.0858 -0.003,0.17152 -0.005,0.25727 -0.002,0.0859 -0.004,0.17187 -0.006,0.2578 -0.002,0.0858 -0.005,0.17152 -0.008,0.25727 -0.003,0.0858 -0.007,0.17152 -0.0107,0.25726 -0.004,0.0858 -0.008,0.17152 -0.0129,0.25726 -0.005,0.0856 -0.009,0.17117 -0.0145,0.25673 -0.005,0.0858 -0.0108,0.17153 -0.0167,0.25726 -0.006,0.0856 -0.0119,0.17118 -0.0183,0.25673 -0.007,0.0856 -0.0133,0.17118 -0.0204,0.25673 -0.007,0.0856 -0.0147,0.17118 -0.0226,0.25672 -0.008,0.0854 -0.0159,0.17082 -0.0243,0.25619 -0.008,0.0854 -0.0172,0.17083 -0.0264,0.25619 -0.009,0.0853 -0.0184,0.17048 -0.028,0.25566 -0.01,0.0853 -0.0197,0.17046 -0.0301,0.25564 -0.0104,0.0853 -0.0212,0.17047 -0.0323,0.25565 -0.011,0.0851 -0.0223,0.17012 -0.034,0.25512 -0.0117,0.0851 -0.0237,0.17012 -0.036,0.25511 -0.0123,0.0849 -0.0248,0.16976 -0.0377,0.25457 -0.0129,0.0849 -0.0262,0.16976 -0.0398,0.25457 -0.0135,0.0847 -0.0273,0.16941 -0.0414,0.25404 -0.0142,0.0847 -0.0288,0.16942 -0.0436,0.25404 -0.0149,0.0846 -0.0302,0.16905 -0.0457,0.25349 -0.0155,0.0844 -0.0313,0.1687 -0.0474,0.25296 -0.0162,0.0842 -0.0327,0.16835 -0.0495,0.25243 -0.0167,0.0842 -0.0338,0.16834 -0.0511,0.25241 -0.0175,0.084 -0.0352,0.16799 -0.0533,0.25189 -0.0181,0.084 -0.0366,0.16799 -0.0554,0.25188 -0.0185,0.0837 -0.0374,0.16727 -0.0565,0.2508 -0.0194,0.0837 -0.0391,0.16729 -0.0592,0.25082 -0.02,0.0835 -0.0402,0.16692 -0.0608,0.25026 -0.0205,0.0833 -0.0413,0.16657 -0.0624,0.24973 -0.0212,0.0831 -0.0427,0.16621 -0.0646,0.24919 -0.0219,0.083 -0.0442,0.16586 -0.0668,0.24866 -0.0225,0.083 -0.0452,0.16585 -0.0683,0.24865 -0.023,0.0826 -0.0463,0.16514 -0.07,0.24757 -0.0238,0.0824 -0.0478,0.16479 -0.0722,0.24705 -0.0244,0.0823 -0.0492,0.16443 -0.0743,0.2465 -0.025,0.0823 -0.0503,0.16442 -0.0759,0.24649 -0.0255,0.0819 -0.0514,0.16372 -0.0775,0.24543 -0.0262,0.0817 -0.0528,0.16336 -0.0797,0.24489 -0.0268,0.0816 -0.0538,0.163 -0.0812,0.24434 -0.0275,0.0814 -0.0553,0.16265 -0.0834,0.24381 -0.028,0.081 -0.0564,0.16193 -0.085,0.24273 -0.0286,0.0808 -0.0575,0.16158 -0.0866,0.2422 -0.0293,0.0808 -0.0589,0.16157 -0.0888,0.24219 -0.0298,0.0803 -0.06,0.1605 -0.0904,0.24058 -0.0306,0.0803 -0.0614,0.16051 -0.0926,0.24059 -0.0311,0.0799 -0.0625,0.15979 -0.0942,0.2395 -0.0316,0.0798 -0.0636,0.15943 -0.0958,0.23896 -0.0323,0.0796 -0.065,0.15908 -0.0979,0.23843 -0.0329,0.0792 -0.0661,0.15836 -0.0996,0.23735 -0.0336,0.0791 -0.0675,0.15801 -0.10175,0.23682 -0.034,0.0787 -0.0682,0.15728 -0.1028,0.23573 -0.0349,0.0785 -0.07,0.15693 -0.10549,0.2352 -0.0352,0.0782 -0.0708,0.15621 -0.10657,0.23412 -0.0359,0.078 -0.0722,0.15586 -0.10871,0.23359 -0.0365,0.0776 -0.0733,0.15515 -0.11034,0.23251 -0.037,0.0775 -0.0743,0.15478 -0.11195,0.23196 -0.0376,0.0771 -0.0754,0.15407 -0.11355,0.23089 -0.0383,0.0769 -0.0769,0.15372 -0.11573,0.23036 -0.0388,0.0766 -0.0779,0.15299 -0.11732,0.22927 -0.0394,0.0762 -0.079,0.15229 -0.11895,0.22821 -0.0399,0.076 -0.0801,0.15193 -0.12055,0.22766 -0.0406,0.0755 -0.0815,0.15085 -0.12272,0.22605 -0.0412,0.0755 -0.0826,0.15085 -0.12433,0.22604 -0.0417,0.075 -0.0837,0.14979 -0.12594,0.22444 -0.0422,0.0746 -0.0847,0.14907 -0.12755,0.22336 -0.0428,0.0744 -0.0858,0.14871 -0.12918,0.22282 -0.0433,0.0741 -0.0869,0.14799 -0.13078,0.22174 -0.0439,0.0737 -0.088,0.14728 -0.1324,0.22067 -0.0446,0.0735 -0.0894,0.14692 -0.13456,0.22013 -0.0451,0.073 -0.0905,0.14584 -0.13616,0.2185 -0.0455,0.0727 -0.0912,0.14514 -0.13724,0.21745 -0.0462,0.0725 -0.0927,0.14477 -0.1394,0.21689 -0.0467,0.0719 -0.0937,0.1437 -0.14101,0.21529 -0.0471,0.0718 -0.0944,0.14335 -0.14209,0.21475 -0.0478,0.0712 -0.0959,0.14227 -0.14424,0.21313 -0.0483,0.071 -0.097,0.14191 -0.14586,0.21259 -0.0489,0.0705 -0.0981,0.14084 -0.14746,0.21098 -0.0493,0.0702 -0.0988,0.14012 -0.14855,0.2099 -0.05,0.0698 -0.1002,0.1394 -0.1507,0.20882 -0.0505,0.0694 -0.10128,0.13869 -0.15231,0.20775 -0.0509,0.0691 -0.102,0.13798 -0.15339,0.20668 -0.0516,0.0687 -0.10344,0.13726 -0.15555,0.20559 -0.052,0.0684 -0.10415,0.13655 -0.15662,0.20453 -0.0525,0.0678 -0.10523,0.13547 -0.15823,0.20291 -0.053,0.0675 -0.10631,0.13475 -0.15985,0.20182 -0.0536,0.0671 -0.10739,0.13404 -0.16146,0.20075 -0.0539,0.0668 -0.10811,0.13332 -0.16254,0.19967 -0.0547,0.0662 -0.10955,0.13225 -0.16469,0.19807 -0.055,0.0659 -0.11027,0.13154 -0.16577,0.19699 -0.0556,0.0653 -0.11134,0.13045 -0.16738,0.19536 -0.0561,0.0652 -0.11242,0.1301 -0.169,0.19483 -0.0564,0.0644 -0.11315,0.12867 -0.17008,0.19268 -0.057,0.0643 -0.11421,0.12832 -0.17168,0.19215 -0.0575,0.0637 -0.1153,0.12723 -0.17331,0.19052 -0.0581,0.0632 -0.11637,0.12617 -0.17492,0.18892 -0.0584,0.0628 -0.11709,0.12544 -0.17599,0.18783 -0.0588,0.0625 -0.11782,0.12473 -0.17708,0.18676 -0.0595,0.0619 -0.11924,0.12365 -0.17922,0.18514 -0.0599,0.0616 -0.11997,0.12295 -0.1803,0.18408 -0.0602,0.061 -0.12069,0.12186 -0.18138,0.18245 -0.0609,0.0605 -0.12212,0.12079 -0.18352,0.18083 -0.0611,0.0602 -0.12249,0.12008 -0.18408,0.17977 -0.0617,0.0598 -0.12356,0.11936 -0.18568,0.17869 -0.0622,0.0591 -0.12464,0.11792 -0.18729,0.17653 -0.0626,0.0587 -0.12536,0.1172 -0.18838,0.17545 -0.0631,0.0584 -0.12644,0.11649 -0.18999,0.17438 -0.0635,0.0576 -0.12716,0.11506 -0.19106,0.17223 -0.0638,0.0573 -0.12788,0.11434 -0.19214,0.17115 -0.0644,0.0569 -0.12896,0.11363 -0.19376,0.17008 -0.0647,0.0562 -0.12968,0.11219 -0.19483,0.16792 -0.0653,0.0559 -0.13076,0.11147 -0.19645,0.16684 -0.0656,0.0553 -0.13147,0.1104 -0.19752,0.16523 -0.066,0.0548 -0.1322,0.10933 -0.1986,0.16362 -0.0665,0.0544 -0.13327,0.10861 -0.20021,0.16254 -0.0667,0.0537 -0.13364,0.10717 -0.20076,0.16038 -0.0673,0.0534 -0.13471,0.10647 -0.20237,0.15932 -0.0678,0.0528 -0.13578,0.10538 -0.20397,0.15769 -0.068,0.0523 -0.13615,0.10431 -0.20452,0.15608 -0.0685,0.0517 -0.13723,0.10324 -0.20614,0.15447 -0.0689,0.0514 -0.13795,0.10252 -0.20721,0.15339 -0.0692,0.0507 -0.13867,0.10109 -0.20829,0.15124 -0.0696,0.0501 -0.13939,0.10001 -0.20937,0.14962 -0.07,0.0498 -0.1401,0.0993 -0.21043,0.14855 -0.0703,0.0491 -0.14083,0.0979 -0.21152,0.14639 -0.0707,0.0487 -0.14154,0.0971 -0.21259,0.14531 -0.0712,0.048 -0.14263,0.0957 -0.21421,0.14317 -0.0714,0.0476 -0.14298,0.095 -0.21474,0.14209 -0.0718,0.0469 -0.14372,0.0936 -0.21583,0.13994 -0.0723,0.0466 -0.14479,0.0928 -0.21744,0.13885 -0.0725,0.0458 -0.14514,0.0914 -0.21797,0.13671 -0.0729,0.0453 -0.14587,0.0903 -0.21905,0.13509 -0.0732,0.045 -0.14659,0.0896 -0.22013,0.13401 -0.0736,0.0442 -0.14731,0.0882 -0.22121,0.13186 -0.0738,0.0437 -0.14767,0.0871 -0.22175,0.13025 -0.0743,0.0432 -0.14873,0.086 -0.22335,0.12863 -0.0745,0.0425 -0.1491,0.0846 -0.2239,0.12649 -0.0748,0.0421 -0.14982,0.0839 -0.22496,0.1254 -0.0752,0.0414 -0.15055,0.0824 -0.22605,0.12325 -0.0756,0.0408 -0.15127,0.0814 -0.22713,0.12163 -0.0757,0.0403 -0.15162,0.0803 -0.22766,0.12003 -0.0761,0.0397 -0.15234,0.0792 -0.22874,0.11839 -0.0765,0.0392 -0.15306,0.0782 -0.22981,0.1168 -0.0766,0.0385 -0.15343,0.0767 -0.23036,0.11464 -0.077,0.038 -0.15415,0.0756 -0.23143,0.11302 -0.0772,0.0374 -0.15451,0.0746 -0.23197,0.11142 -0.0775,0.0369 -0.15522,0.0735 -0.23304,0.10978 -0.0779,0.0362 -0.15595,0.0721 -0.23413,0.10765 -0.0781,0.0356 -0.1563,0.071 -0.23466,0.10603 -0.0783,0.0351 -0.15667,0.0699 -0.2352,0.10441 -0.0786,0.0344 -0.15738,0.0685 -0.23627,0.10227 -0.0788,0.0338 -0.15775,0.0674 -0.23681,0.10061 -0.0792,0.0333 -0.15847,0.0664 -0.23789,0.0991 -0.0794,0.0326 -0.15883,0.0649 -0.23843,0.0969 -0.0797,0.0321 -0.15955,0.0638 -0.2395,0.0953 -0.0799,0.0315 -0.15991,0.0627 -0.24004,0.0936 -0.0801,0.0308 -0.16028,0.0614 -0.24059,0.0916 -0.0803,0.0303 -0.16063,0.0602 -0.24111,0.0899 -0.0806,0.0295 -0.16136,0.0588 -0.2422,0.0877 -0.0808,0.029 -0.16171,0.0577 -0.24273,0.0861 -0.081,0.0285 -0.16208,0.0566 -0.24327,0.0845 -0.0812,0.0278 -0.16244,0.0552 -0.24381,0.0824 -0.0814,0.0272 -0.1628,0.0541 -0.24435,0.0807 -0.0817,0.0265 -0.16352,0.0527 -0.24542,0.0786 -0.0817,0.026 -0.16352,0.0516 -0.24543,0.077 -0.0821,0.0254 -0.16424,0.0506 -0.2465,0.0754 -0.0822,0.0247 -0.1646,0.0491 -0.24704,0.0732 -0.0823,0.024 -0.1646,0.0476 -0.24704,0.071 -0.0826,0.0235 -0.16532,0.0466 -0.24811,0.0695 -0.0828,0.0229 -0.16569,0.0455 -0.24866,0.0678 -0.0828,0.0222 -0.16568,0.0441 -0.24865,0.0657 -0.0832,0.0215 -0.1664,0.0427 -0.24973,0.0635 -0.0832,0.0209 -0.16641,0.0416 -0.24973,0.0619 -0.0835,0.0204 -0.16713,0.0405 -0.2508,0.0603 -0.0835,0.0197 -0.16713,0.0391 -0.25081,0.0581 -0.0837,0.019 -0.16749,0.0376 -0.25134,0.0559 -0.0837,0.0185 -0.1675,0.0366 -0.25135,0.0544 -0.0841,0.0177 -0.16821,0.0351 -0.25242,0.0522 -0.0841,0.0172 -0.16822,0.0341 -0.25242,0.0506 -0.0843,0.0165 -0.16858,0.0326 -0.25296,0.0484 -0.0843,0.016 -0.16858,0.0316 -0.25296,0.0469 -0.0844,0.0152 -0.16894,0.0301 -0.25349,0.0447 -0.0846,0.0146 -0.16931,0.029 -0.25404,0.043 -0.0846,0.0139 -0.16931,0.0276 -0.25404,0.0409 -0.0848,0.0132 -0.16966,0.0261 -0.25457,0.0387 -0.085,0.0127 -0.17003,0.0251 -0.25511,0.0372 -0.085,0.012 -0.17003,0.0237 -0.25511,0.035 -0.085,0.0114 -0.17004,0.0225 -0.25512,0.0333 -0.0852,0.0107 -0.17039,0.0211 -0.25565,0.0312 -0.0852,0.0102 -0.17039,0.0201 -0.25564,0.0296 -0.0854,0.009 -0.17076,0.0183 -0.25619,0.0269 -0.0854,0.009 -0.17076,0.0175 -0.25619,0.0258 -0.0855,0.008 -0.17112,0.0157 -0.25673,0.0231 -0.0854,0.008 -0.17077,0.0147 -0.25619,0.0216 -0.0857,0.007 -0.17148,0.0136 -0.25726,0.0199 -0.0855,0.006 -0.17113,0.0121 -0.25673,0.0177 -0.0855,0.006 -0.17113,0.0107 -0.25672,0.0156 -0.0857,0.005 -0.1715,0.01 -0.25727,0.014 -0.0857,0.004 -0.1715,0.008 -0.25727,0.0119 -0.0857,0.003 -0.17149,0.006 -0.25726,0.009 -0.0857,0.003 -0.1715,0.006 -0.25726,0.008 -0.0859,0.002 -0.17186,0.004 -0.25781,0.006 -0.0858,0.002 -0.1715,0.003 -0.25726,0.004 -0.0858,9.9e-4 -0.17151,0.002 -0.25727,0.002 -0.0499,2.9e-4 -0.0998,4.8e-4 -0.14962,5.5e-4 -0.0858,-1e-5 -0.17151,-3.4e-4 -0.25726,-0.001 -0.0859,-6.7e-4 -0.17188,-0.002 -0.25781,-0.003 -0.0858,-0.001 -0.17151,-0.003 -0.25726,-0.005 -0.0858,-0.002 -0.17152,-0.004 -0.25727,-0.007 -0.0859,-0.002 -0.17188,-0.005 -0.2578,-0.008 -0.0858,-0.003 -0.17152,-0.007 -0.25726,-0.0107 -0.0856,-0.004 -0.17117,-0.008 -0.25673,-0.0129 -0.0858,-0.005 -0.17153,-0.009 -0.25726,-0.0145 -0.0858,-0.005 -0.17154,-0.0108 -0.25727,-0.0167 -0.0856,-0.006 -0.17117,-0.0119 -0.25673,-0.0183 -0.0856,-0.006 -0.17117,-0.0133 -0.25672,-0.0204 -0.0854,-0.007 -0.17082,-0.0144 -0.25619,-0.0221 -0.0856,-0.008 -0.17118,-0.0162 -0.25673,-0.0248 -0.0854,-0.008 -0.17082,-0.0169 -0.25619,-0.0258 -0.0853,-0.009 -0.17047,-0.0187 -0.25565,-0.0285 -0.0853,-0.01 -0.17047,-0.0197 -0.25565,-0.0301 -0.0853,-0.0103 -0.17047,-0.0209 -0.25565,-0.0318 -0.0851,-0.0112 -0.17012,-0.0227 -0.25511,-0.0345 -0.0851,-0.0115 -0.17012,-0.0233 -0.25511,-0.0355 -0.0849,-0.0124 -0.16976,-0.0251 -0.25457,-0.0382 -0.0849,-0.0129 -0.16977,-0.0262 -0.25458,-0.0398 -0.0847,-0.0135 -0.16941,-0.0273 -0.25403,-0.0414 -0.0845,-0.0142 -0.16906,-0.0288 -0.2535,-0.0436 -0.0846,-0.0149 -0.16905,-0.0301 -0.2535,-0.0457 -0.0846,-0.0155 -0.16906,-0.0313 -0.2535,-0.0474 -0.0842,-0.0162 -0.16834,-0.0327 -0.25241,-0.0495 -0.0842,-0.0167 -0.16835,-0.0337 -0.25243,-0.0511 -0.084,-0.0174 -0.16799,-0.0352 -0.251878,-0.0533 -0.08385,-0.018 -0.167633,-0.0363 -0.251345,-0.0549 -0.08385,-0.0187 -0.167635,-0.0378 -0.251344,-0.0571 -0.08368,-0.0194 -0.167278,-0.0391 -0.250804,-0.0591 -0.0835,-0.0199 -0.166924,-0.0402 -0.250271,-0.0608 -0.08332,-0.0205 -0.166565,-0.0413 -0.249729,-0.0624 -0.08314,-0.0212 -0.16621,-0.0427 -0.249193,-0.0646 -0.08297,-0.022 -0.165853,-0.0442 -0.248652,-0.0668 -0.08279,-0.0224 -0.165496,-0.0452 -0.248115,-0.0683 -0.08279,-0.023 -0.165499,-0.0464 -0.248115,-0.07 -0.08244,-0.0237 -0.164783,-0.0478 -0.247037,-0.0721 -0.08226,-0.0243 -0.164429,-0.0488 -0.246504,-0.0737 -0.08208,-0.025 -0.164069,-0.0503 -0.24596,-0.0759 -0.08209,-0.0257 -0.164074,-0.0517 -0.245963,-0.078 -0.08173,-0.0261 -0.163357,-0.0525 -0.244885,-0.0792 -0.08137,-0.027 -0.162643,-0.0543 -0.24381,-0.0819 -0.08137,-0.0273 -0.162646,-0.055 -0.243811,-0.0829 -0.0812,-0.028 -0.162288,-0.0564 -0.24327,-0.085 -0.08084,-0.0288 -0.161573,-0.0578 -0.242194,-0.0872 -0.08066,-0.0293 -0.161218,-0.0589 -0.241658,-0.0888 -0.08049,-0.0298 -0.16086,-0.06 -0.241118,-0.0904 -0.08031,-0.0306 -0.160503,-0.0614 -0.240579,-0.0926 -0.07995,-0.0311 -0.159788,-0.0625 -0.239504,-0.0942 -0.07978,-0.0316 -0.159432,-0.0636 -0.238966,-0.0958 -0.07942,-0.0324 -0.158716,-0.065 -0.237888,-0.098 -0.07942,-0.0329 -0.158719,-0.0661 -0.237889,-0.0996 -0.07889,-0.0335 -0.157646,-0.0672 -0.236277,-0.10123 -0.07889,-0.0341 -0.157647,-0.0686 -0.236274,-0.10332 -0.07853,-0.0347 -0.15693,-0.0697 -0.235196,-0.10494 -0.07818,-0.0354 -0.156217,-0.0711 -0.234123,-0.10711 -0.078,-0.0358 -0.155859,-0.0718 -0.233583,-0.10818 -0.07764,-0.0365 -0.155145,-0.0733 -0.232508,-0.11034 -0.07747,-0.0372 -0.154789,-0.0747 -0.23197,-0.11248 -0.07711,-0.0376 -0.154071,-0.0754 -0.230892,-0.11356 -0.07693,-0.0383 -0.153714,-0.0769 -0.230352,-0.11571 -0.07639,-0.0388 -0.152641,-0.0779 -0.22874,-0.11734 -0.0764,-0.0394 -0.152644,-0.079 -0.22874,-0.11894 -0.07586,-0.0399 -0.151569,-0.0801 -0.227125,-0.12056 -0.07568,-0.0406 -0.151212,-0.0815 -0.226586,-0.12271 -0.07533,-0.041 -0.150496,-0.0822 -0.22551,-0.1238 -0.07515,-0.0417 -0.150141,-0.0837 -0.224972,-0.12593 -0.07461,-0.0422 -0.149067,-0.0848 -0.223359,-0.12756 -0.07444,-0.0428 -0.148709,-0.0858 -0.222819,-0.12916 -0.07408,-0.0435 -0.147994,-0.0873 -0.221742,-0.13133 -0.07372,-0.0439 -0.147279,-0.088 -0.220668,-0.1324 -0.07337,-0.0446 -0.146564,-0.0894 -0.219591,-0.13455 -0.07319,-0.0449 -0.146205,-0.0901 -0.21905,-0.13563 -0.07265,-0.0457 -0.145132,-0.0916 -0.217437,-0.13779 -0.0723,-0.0462 -0.144417,-0.0927 -0.216362,-0.13939 -0.07212,-0.0465 -0.144058,-0.0934 -0.215821,-0.14048 -0.07158,-0.0473 -0.142985,-0.0948 -0.214208,-0.14262 -0.0714,-0.0478 -0.142628,-0.0959 -0.213669,-0.14424 -0.07087,-0.0483 -0.141554,-0.097 -0.212055,-0.14585 -0.07069,-0.0487 -0.141196,-0.0977 -0.211516,-0.14694 -0.07015,-0.0494 -0.140124,-0.0991 -0.209903,-0.14908 -0.0698,-0.05 -0.139408,-0.1002 -0.208826,-0.1507 -0.06944,-0.0503 -0.138691,-0.10092 -0.20775,-0.15177 -0.06909,-0.0511 -0.137976,-0.10237 -0.206672,-0.15394 -0.06873,-0.0514 -0.13726,-0.10307 -0.205596,-0.155 -0.06819,-0.0521 -0.136187,-0.10451 -0.203983,-0.15715 -0.06801,-0.0525 -0.135829,-0.10524 -0.203444,-0.15824 -0.06748,-0.053 -0.134754,-0.10631 -0.201828,-0.15985 -0.06712,-0.0536 -0.13404,-0.10739 -0.200754,-0.16146 -0.06658,-0.0539 -0.132963,-0.10811 -0.199137,-0.16254 -0.06623,-0.0547 -0.132249,-0.10954 -0.198061,-0.16469 -0.06587,-0.055 -0.131534,-0.11027 -0.196987,-0.16578 -0.06551,-0.0555 -0.130815,-0.11134 -0.195906,-0.16738 -0.06498,-0.0559 -0.129742,-0.11206 -0.194295,-0.16846 -0.06462,-0.0566 -0.129027,-0.1135 -0.193217,-0.17061 -0.06426,-0.057 -0.128312,-0.11422 -0.192143,-0.17169 -0.06373,-0.0575 -0.127237,-0.1153 -0.190527,-0.17331 -0.06319,-0.0579 -0.12616,-0.11601 -0.18891,-0.17437 -0.06283,-0.0584 -0.125445,-0.1171 -0.187835,-0.176 -0.06248,-0.059 -0.124732,-0.11817 -0.186761,-0.17761 -0.06194,-0.0595 -0.123656,-0.11925 -0.185144,-0.17923 -0.06158,-0.0599 -0.122939,-0.11996 -0.184067,-0.18029 -0.06105,-0.0602 -0.121865,-0.12069 -0.182455,-0.18138 -0.06051,-0.0608 -0.120789,-0.12177 -0.180838,-0.18299 -0.06015,-0.0613 -0.120075,-0.12285 -0.179762,-0.18461 -0.05962,-0.0617 -0.119,-0.12356 -0.178149,-0.18568 -0.05926,-0.0622 -0.118284,-0.12464 -0.177071,-0.1873 -0.05872,-0.0626 -0.11721,-0.12537 -0.175458,-0.18838 -0.05819,-0.0629 -0.116133,-0.12607 -0.173842,-0.18944 -0.05783,-0.0636 -0.115418,-0.12752 -0.172764,-0.1916 -0.05729,-0.0638 -0.114342,-0.12788 -0.17115,-0.19215 -0.05676,-0.0644 -0.113271,-0.12895 -0.169539,-0.19375 -0.0564,-0.0647 -0.112553,-0.12967 -0.16846,-0.19483 -0.05586,-0.0653 -0.111477,-0.13076 -0.166843,-0.19645 -0.05533,-0.0656 -0.110403,-0.13147 -0.165231,-0.19752 -0.05479,-0.066 -0.109328,-0.13219 -0.163616,-0.1986 -0.05425,-0.0664 -0.108252,-0.13292 -0.162001,-0.19968 -0.0539,-0.0669 -0.107539,-0.13399 -0.160927,-0.20129 -0.05336,-0.0673 -0.106461,-0.13471 -0.159309,-0.20236 -0.05282,-0.0676 -0.105388,-0.13543 -0.157697,-0.20345 -0.05229,-0.0682 -0.104314,-0.13651 -0.156082,-0.20506 -0.05175,-0.0685 -0.103236,-0.13723 -0.154464,-0.20614 -0.05121,-0.0687 -0.102162,-0.13759 -0.152853,-0.20667 -0.05085,-0.0692 -0.101446,-0.13867 -0.151775,-0.20829 -0.05014,-0.0696 -0.100013,-0.13938 -0.149623,-0.20935 -0.04978,-0.0701 -0.0993,-0.14047 -0.148545,-0.21099 -0.04906,-0.0703 -0.09786,-0.14083 -0.146394,-0.21152 -0.04871,-0.0707 -0.09715,-0.14154 -0.145318,-0.21259 -0.04799,-0.071 -0.09571,-0.14226 -0.143164,-0.21366 -0.04763,-0.0716 -0.095,-0.14335 -0.142087,-0.21529 -0.04692,-0.0718 -0.09356,-0.1437 -0.139934,-0.21582 -0.04638,-0.0721 -0.09249,-0.14443 -0.138321,-0.21691 -0.04602,-0.0727 -0.09177,-0.14549 -0.137242,-0.2185 -0.04531,-0.0728 -0.09034,-0.14587 -0.135092,-0.21906 -0.04477,-0.0732 -0.08926,-0.14658 -0.133475,-0.22012 -0.04423,-0.0736 -0.08819,-0.14731 -0.131863,-0.22121 -0.04369,-0.0737 -0.08711,-0.14766 -0.130248,-0.22174 -0.04316,-0.0743 -0.08604,-0.14874 -0.128631,-0.22336 -0.04262,-0.0745 -0.08496,-0.14911 -0.127018,-0.2239 -0.04209,-0.0748 -0.08389,-0.14982 -0.125403,-0.22497 -0.04137,-0.0752 -0.08245,-0.15054 -0.12325,-0.22605 -0.04083,-0.0755 -0.08138,-0.15126 -0.121637,-0.22712 -0.04029,-0.0757 -0.0803,-0.15163 -0.12002,-0.22767 -0.0398,-0.0761 -0.0792,-0.15234 -0.1184,-0.22873 -0.0392,-0.0763 -0.0781,-0.15271 -0.11679,-0.22928 -0.0385,-0.0768 -0.0767,-0.15378 -0.11464,-0.23089 -0.038,-0.077 -0.0757,-0.15414 -0.11303,-0.23143 -0.0374,-0.0772 -0.0746,-0.15451 -0.11141,-0.23198 -0.0367,-0.0775 -0.0731,-0.15522 -0.10926,-0.23304 -0.0363,-0.0777 -0.0724,-0.15558 -0.10817,-0.23358 -0.0356,-0.0781 -0.071,-0.15631 -0.10603,-0.23466 -0.0349,-0.0785 -0.0695,-0.15702 -0.10387,-0.23573 -0.0346,-0.0786 -0.0688,-0.15739 -0.1028,-0.23628 -0.0339,-0.0788 -0.0674,-0.15775 -0.10064,-0.23682 -0.0333,-0.0792 -0.0663,-0.15847 -0.099,-0.23789 -0.0326,-0.0794 -0.0649,-0.15883 -0.0969,-0.23843 -0.0321,-0.0797 -0.0638,-0.15955 -0.0953,-0.2395 -0.0315,-0.0797 -0.0627,-0.15955 -0.0936,-0.2395 -0.0308,-0.0801 -0.0613,-0.16027 -0.0915,-0.24058 -0.0303,-0.0804 -0.0602,-0.16099 -0.0899,-0.24166 -0.0295,-0.0804 -0.0588,-0.161 -0.0877,-0.24166 -0.029,-0.0808 -0.0577,-0.16171 -0.0861,-0.24273 -0.0285,-0.081 -0.0566,-0.16207 -0.0845,-0.24327 -0.0277,-0.0813 -0.0552,-0.16279 -0.0823,-0.24434 -0.0272,-0.0814 -0.0541,-0.16281 -0.0807,-0.24436 -0.0265,-0.0817 -0.0527,-0.16351 -0.0786,-0.24542 -0.026,-0.0817 -0.0516,-0.16352 -0.077,-0.24543 -0.0252,-0.0821 -0.0502,-0.16423 -0.0748,-0.24649 -0.0247,-0.0821 -0.0491,-0.16424 -0.0732,-0.2465 -0.0242,-0.0824 -0.0481,-0.16496 -0.0716,-0.24758 -0.0234,-0.0826 -0.0466,-0.16532 -0.0694,-0.24811 -0.0228,-0.0828 -0.0452,-0.16569 -0.0673,-0.24866 -0.0222,-0.0828 -0.0441,-0.16568 -0.0657,-0.24865 -0.0217,-0.0832 -0.043,-0.16641 -0.064,-0.24973 -0.0209,-0.0832 -0.0416,-0.16641 -0.0619,-0.24973 -0.0203,-0.0833 -0.0402,-0.16677 -0.0598,-0.25027 -0.0197,-0.0835 -0.0391,-0.16713 -0.0581,-0.2508 -0.0192,-0.0837 -0.038,-0.1675 -0.0566,-0.25135 -0.0184,-0.0839 -0.0366,-0.16785 -0.0544,-0.25188 -0.0177,-0.0839 -0.0351,-0.16786 -0.0522,-0.25189 -0.0172,-0.0843 -0.034,-0.16858 -0.0506,-0.25296 -0.0165,-0.0841 -0.0326,-0.16822 -0.0484,-0.25242 -0.016,-0.0844 -0.0316,-0.16893 -0.0469,-0.25349 -0.0152,-0.0844 -0.0301,-0.16894 -0.0447,-0.2535 -0.0147,-0.0846 -0.029,-0.1693 -0.043,-0.25403 -0.0139,-0.0846 -0.0276,-0.16932 -0.0409,-0.25405 -0.0132,-0.0848 -0.0261,-0.16966 -0.0387,-0.25456 -0.0127,-0.085 -0.0251,-0.17003 -0.0372,-0.25512 -0.012,-0.085 -0.0237,-0.17003 -0.035,-0.25511 -0.0114,-0.085 -0.0225,-0.17003 -0.0333,-0.25511 -0.0107,-0.0852 -0.0211,-0.17039 -0.0312,-0.25565 -0.01,-0.0852 -0.0197,-0.1704 -0.0291,-0.25565 -0.009,-0.0854 -0.0186,-0.17076 -0.0274,-0.25619 -0.009,-0.0854 -0.0172,-0.17076 -0.0253,-0.25619 -0.008,-0.0854 -0.0161,-0.17076 -0.0236,-0.25619 -0.008,-0.0856 -0.0147,-0.17113 -0.0216,-0.25673 -0.007,-0.0856 -0.0136,-0.17112 -0.0199,-0.25672 -0.006,-0.0857 -0.0121,-0.17149 -0.0177,-0.25727 -0.006,-0.0856 -0.0107,-0.17113 -0.0156,-0.25672 -0.005,-0.0857 -0.009,-0.1715 -0.0134,-0.25727 -0.004,-0.0857 -0.008,-0.17149 -0.0119,-0.25726 -0.004,-0.0857 -0.007,-0.17149 -0.0104,-0.25726 -0.003,-0.0858 -0.006,-0.1715 -0.008,-0.25727 -0.002,-0.0857 -0.004,-0.1715 -0.006,-0.25726 -0.002,-0.0859 -0.003,-0.17187 -0.004,-0.25781 -9.9e-4,-0.0858 -0.002,-0.1715 -0.002,-0.25726 -2.9e-4,-0.0499 -4.8e-4,-0.0998 -5.5e-4,-0.14962 1e-5,-0.0858 3.4e-4,-0.17151 0.001,-0.25727 6.7e-4,-0.0859 0.002,-0.17186 0.003,-0.25779 0.001,-0.0858 0.003,-0.17153 0.005,-0.25728 0.002,-0.0858 0.004,-0.17151 0.006,-0.25726 0.003,-0.0858 0.006,-0.17152 0.009,-0.25727 0.003,-0.0858 0.007,-0.17152 0.0104,-0.25726 0.004,-0.0858 0.008,-0.17152 0.0129,-0.25726 0.005,-0.0858 0.009,-0.17153 0.0145,-0.25727 0.005,-0.0856 0.0108,-0.17117 0.0167,-0.25672 0.006,-0.0858 0.0119,-0.17154 0.0183,-0.25727 0.006,-0.0854 0.0133,-0.17082 0.0204,-0.25619 0.007,-0.0856 0.0147,-0.17118 0.0226,-0.25672 0.008,-0.0854 0.0159,-0.17082 0.0243,-0.25619 0.008,-0.0854 0.0172,-0.17083 0.0263,-0.25619 0.009,-0.0854 0.0183,-0.17083 0.028,-0.25619 0.01,-0.0853 0.0197,-0.17047 0.0301,-0.25565 0.0104,-0.0853 0.0212,-0.17047 0.0323,-0.25565 0.011,-0.0851 0.0224,-0.17012 0.034,-0.25511 0.0117,-0.0851 0.0237,-0.17012 0.036,-0.25511 0.0123,-0.0849 0.0248,-0.16977 0.0377,-0.25458 0.013,-0.0849 0.0262,-0.16976 0.0398,-0.25457 0.0135,-0.0847 0.0273,-0.16941 0.0414,-0.25403 0.0142,-0.0846 0.0287,-0.16906 0.0436,-0.25351 0.0149,-0.0845 0.0301,-0.16905 0.0457,-0.25349 0.0155,-0.0844 0.0313,-0.1687 0.0474,-0.25296 0.0162,-0.0844 0.0327,-0.1687 0.0495,-0.25296 0.0167,-0.0842 0.0337,-0.16834 0.0511,-0.25241 0.0174,-0.084 0.0352,-0.16799 0.0533,-0.25189 0.0181,-0.0838 0.0366,-0.16764 0.0554,-0.25135 0.0186,-0.0839 0.0374,-0.16763 0.0566,-0.25134 0.0194,-0.0837 0.0392,-0.16728 0.0592,-0.25081 0.0199,-0.0833 0.0402,-0.16656 0.0608,-0.24973 0.0205,-0.0833 0.0413,-0.16657 0.0624,-0.24973 0.0212,-0.0833 0.0427,-0.16657 0.0646,-0.24973 0.022,-0.083 0.0442,-0.16585 0.0668,-0.24865 0.0225,-0.0828 0.0452,-0.16549 0.0683,-0.24811 0.023,-0.0826 0.0463,-0.16514 0.07,-0.24758 0.0237,-0.0826 0.0477,-0.16514 0.0721,-0.24758 0.0245,-0.0823 0.0492,-0.16443 0.0743,-0.2465 0.025,-0.0821 0.0503,-0.16407 0.0759,-0.24596 0.0255,-0.0819 0.0514,-0.16372 0.0775,-0.24543 0.0263,-0.0817 0.0528,-0.16335 0.0797,-0.24488 0.0268,-0.0815 0.0539,-0.163 0.0813,-0.24435 0.0275,-0.0814 0.0553,-0.16265 0.0834,-0.24381 0.028,-0.0812 0.0564,-0.16229 0.085,-0.24327 0.0286,-0.0808 0.0574,-0.16157 0.0866,-0.24219 0.0293,-0.0807 0.0589,-0.16122 0.0888,-0.24166 0.0298,-0.0805 0.06,-0.16086 0.0904,-0.24112 0.0306,-0.0801 0.0614,-0.16015 0.0926,-0.24005 0.0311,-0.0801 0.0625,-0.16014 0.0942,-0.24003 0.0316,-0.0798 0.0636,-0.15943 0.0958,-0.23897 0.0323,-0.0794 0.065,-0.15872 0.0979,-0.23789 0.0329,-0.0792 0.0661,-0.15836 0.0996,-0.23735 0.0336,-0.0791 0.0675,-0.15801 0.10172,-0.23682 0.0341,-0.0787 0.0686,-0.15728 0.10334,-0.23573 0.0347,-0.0785 0.0697,-0.15693 0.10495,-0.23519 0.0352,-0.0784 0.0708,-0.15657 0.10657,-0.23466 0.0359,-0.078 0.0722,-0.15586 0.10872,-0.23359 0.0365,-0.0776 0.0733,-0.15515 0.11033,-0.23251 0.037,-0.0775 0.0743,-0.15479 0.11195,-0.23197 0.0376,-0.0771 0.0754,-0.15407 0.11356,-0.23089 0.0383,-0.0768 0.0769,-0.15336 0.11572,-0.22982 0.0388,-0.0766 0.0779,-0.15299 0.11732,-0.22927 0.0394,-0.0762 0.079,-0.15229 0.11895,-0.22821 0.0399,-0.076 0.08008,-0.15193 0.120554,-0.22766 0.04062,-0.0757 0.08152,-0.15122 0.122714,-0.22659 0.04116,-0.0753 0.0826,-0.15049 0.124326,-0.2255 0.0417,-0.075 0.08368,-0.14979 0.125942,-0.22444 0.04224,-0.0748 0.08476,-0.14942 0.127556,-0.22389 0.04278,-0.0744 0.08583,-0.14871 0.12917,-0.22282 0.04331,-0.0741 0.08691,-0.14799 0.130785,-0.22174 0.04385,-0.0737 0.08799,-0.14728 0.132401,-0.22067 0.04457,-0.0734 0.08942,-0.14657 0.134552,-0.2196 0.04511,-0.073 0.0905,-0.14584 0.136168,-0.2185 0.04547,-0.0728 0.09122,-0.14549 0.137243,-0.21798 0.04619,-0.0723 0.09266,-0.14442 0.139397,-0.21636 0.04673,-0.0721 0.09373,-0.14406 0.141009,-0.21582 0.04709,-0.0716 0.09446,-0.14299 0.142089,-0.21422 0.04781,-0.0714 0.09589,-0.14262 0.144241,-0.21366 0.04835,-0.0709 0.09697,-0.14156 0.145853,-0.21206 0.04889,-0.0705 0.09805,-0.14084 0.147472,-0.21098 0.04925,-0.0703 0.09877,-0.14047 0.148545,-0.21043 0.04997,-0.0698 0.100203,-0.13941 0.1507,-0.20883 0.05051,-0.0694 0.101279,-0.13869 0.152312,-0.20775 0.05087,-0.0691 0.102,-0.13797 0.15339,-0.20667 0.05159,-0.0687 0.103437,-0.13726 0.155545,-0.2056 0.05195,-0.0682 0.104156,-0.13618 0.156619,-0.20398 0.05249,-0.0678 0.105233,-0.13547 0.158233,-0.2029 0.05303,-0.0677 0.10631,-0.13512 0.159848,-0.20238 0.05357,-0.0669 0.107391,-0.13368 0.161464,-0.20021 0.05393,-0.0668 0.108108,-0.13332 0.162539,-0.19967 0.05465,-0.0662 0.109546,-0.13225 0.164693,-0.19806 0.05501,-0.0659 0.110264,-0.13154 0.165769,-0.19699 0.05555,-0.0655 0.111342,-0.13082 0.167383,-0.19591 0.05609,-0.065 0.112422,-0.12974 0.169,-0.19429 0.05645,-0.0646 0.113139,-0.12903 0.170073,-0.19322 0.05699,-0.0641 0.114218,-0.12796 0.171689,-0.19161 0.05753,-0.0637 0.115297,-0.12723 0.173305,-0.19052 0.05807,-0.0634 0.116372,-0.12652 0.174917,-0.18945 0.05843,-0.0628 0.117093,-0.12545 0.175995,-0.18784 0.05879,-0.0625 0.117813,-0.12472 0.177072,-0.18675 0.05951,-0.0619 0.119249,-0.12366 0.179224,-0.18515 0.05987,-0.0614 0.11997,-0.12257 0.180301,-0.18352 0.06023,-0.061 0.120688,-0.12188 0.181377,-0.18247 0.06093,-0.0607 0.12208,-0.12107 0.183463,-0.18126 0.06113,-0.0602 0.122486,-0.12008 0.184068,-0.17977 0.06167,-0.0596 0.123563,-0.11899 0.185681,-0.17814 0.06221,-0.0593 0.124641,-0.11828 0.187297,-0.17707 0.06257,-0.0587 0.125363,-0.11721 0.188376,-0.17546 0.06311,-0.0582 0.12644,-0.11613 0.189988,-0.17384 0.06347,-0.0578 0.127158,-0.11541 0.191064,-0.17276 0.06383,-0.0573 0.127878,-0.11435 0.19214,-0.17116 0.06437,-0.0567 0.128958,-0.11326 0.193757,-0.16953 0.06473,-0.0564 0.129676,-0.11255 0.194832,-0.16846 0.06527,-0.0557 0.130755,-0.11112 0.196447,-0.16631 0.06563,-0.0553 0.131474,-0.1104 0.197524,-0.16523 0.06599,-0.055 0.132192,-0.10968 0.198599,-0.16415 0.06653,-0.0543 0.133271,-0.10826 0.200213,-0.16201 0.06671,-0.05389 0.133634,-0.107535 0.200755,-0.160922 0.06725,-0.05336 0.13471,-0.106461 0.202366,-0.159308 0.06779,-0.05282 0.13579,-0.105386 0.203983,-0.157693 0.06798,-0.05229 0.136151,-0.104318 0.204521,-0.15609 0.06852,-0.05175 0.137227,-0.103237 0.206133,-0.154465 0.06888,-0.05121 0.137949,-0.102162 0.207212,-0.152851 0.06924,-0.05067 0.138668,-0.101087 0.208288,-0.151236 0.0696,-0.05032 0.139386,-0.100374 0.209363,-0.150164 0.06996,-0.0496 0.140106,-0.09894 0.210439,-0.148008 0.07032,-0.04924 0.140827,-0.09822 0.211518,-0.146935 0.07068,-0.04852 0.141547,-0.09678 0.212594,-0.144769 0.07122,-0.04817 0.142623,-0.09607 0.214207,-0.143706 0.0714,-0.04745 0.142987,-0.09464 0.214747,-0.14155 0.07176,-0.04709 0.143704,-0.09392 0.215822,-0.140468 0.0723,-0.04638 0.144783,-0.09249 0.217436,-0.138321 0.07249,-0.04603 0.145145,-0.09177 0.217977,-0.137249 0.07285,-0.0453 0.145864,-0.09033 0.219051,-0.135083 0.07321,-0.04477 0.146584,-0.08926 0.220128,-0.133479 0.07357,-0.04423 0.147303,-0.08819 0.221204,-0.131864 0.07375,-0.0437 0.147666,-0.08711 0.221744,-0.130251 0.07429,-0.04316 0.148743,-0.08603 0.223358,-0.128625 0.07447,-0.04262 0.149104,-0.08496 0.223896,-0.127022 0.07483,-0.0419 0.149823,-0.08353 0.22497,-0.124865 0.07519,-0.04155 0.150543,-0.08281 0.226048,-0.123793 0.07555,-0.04083 0.151263,-0.08137 0.227125,-0.121626 0.07574,-0.0403 0.151626,-0.0803 0.227665,-0.120023 0.0761,-0.03976 0.152343,-0.07923 0.228738,-0.118408 0.07646,-0.03904 0.153065,-0.07779 0.229817,-0.116253 0.07664,-0.03868 0.153425,-0.07708 0.230355,-0.115179 0.077,-0.03797 0.154144,-0.07564 0.231429,-0.113024 0.07718,-0.03743 0.154507,-0.07457 0.231971,-0.11141 0.07754,-0.03671 0.155225,-0.07313 0.233044,-0.109253 0.0779,-0.03618 0.155945,-0.07206 0.234121,-0.10765 0.07809,-0.03564 0.156307,-0.07098 0.23466,-0.106024 0.07827,-0.0351 0.156668,-0.0699 0.235199,-0.104411 0.07863,-0.03456 0.157387,-0.06883 0.236274,-0.102796 0.07881,-0.03383 0.157747,-0.06737 0.236811,-0.100609 0.07917,-0.03314 0.158469,-0.06599 0.237889,-0.09853 0.07935,-0.03276 0.15883,-0.06522 0.238429,-0.09738 0.07971,-0.03207 0.159549,-0.06384 0.239504,-0.0953 0.0799,-0.03134 0.15991,-0.06238 0.240041,-0.09311 0.08008,-0.03099 0.160271,-0.06168 0.240581,-0.09207 0.08026,-0.03009 0.160634,-0.05988 0.241119,-0.08936 0.08062,-0.02971 0.161352,-0.05912 0.242194,-0.08822 0.0808,-0.02902 0.161714,-0.05773 0.242734,-0.08613 0.08098,-0.02846 0.162074,-0.05662 0.243271,-0.08447 0.08116,-0.02777 0.162435,-0.05523 0.243808,-0.08238 0.08135,-0.02721 0.162797,-0.05412 0.244347,-0.08072 0.08171,-0.02652 0.163518,-0.05273 0.245426,-0.07863 0.08171,-0.02597 0.163518,-0.05162 0.245422,-0.07697 0.08207,-0.02524 0.16424,-0.05016 0.246501,-0.07478 0.08225,-0.02472 0.164601,-0.04913 0.24704,-0.07322 0.08226,-0.02416 0.164602,-0.04801 0.247038,-0.07155 0.08262,-0.02347 0.165322,-0.04663 0.248114,-0.06947 0.0828,-0.02274 0.165686,-0.04517 0.248656,-0.06728 0.0828,-0.02218 0.165686,-0.04405 0.248652,-0.06561 0.08316,-0.02167 0.166406,-0.04302 0.24973,-0.06405 0.08317,-0.02093 0.166408,-0.04156 0.249729,-0.06186 0.08353,-0.02024 0.167129,-0.04017 0.250807,-0.05978 0.08353,-0.01969 0.16713,-0.03906 0.250805,-0.05812 0.08371,-0.01917 0.167492,-0.03802 0.251345,-0.05655 0.08371,-0.01844 0.167494,-0.03656 0.251339,-0.05437 0.0841,-0.01771 0.16822,-0.03511 0.25243,-0.05218 0.0841,-0.01719 0.16821,-0.03406 0.25242,-0.05062 0.0843,-0.01646 0.16858,-0.03261 0.25296,-0.04843 0.0843,-0.01594 0.16858,-0.03157 0.25296,-0.04687 0.0844,-0.01521 0.16894,-0.03011 0.25349,-0.04468 0.0846,-0.01448 0.16931,-0.02865 0.25404,-0.04249 0.0848,-0.01396 0.16966,-0.02761 0.25457,-0.04093 0.0846,-0.01341 0.16931,-0.02649 0.25404,-0.03926 0.085,-0.01272 0.17002,-0.02511 0.25511,-0.03718 0.085,-0.01198 0.17003,-0.02365 0.25511,-0.03499 0.085,-0.01143 0.17003,-0.02254 0.25511,-0.03333 0.0852,-0.01074 0.1704,-0.02115 0.25565,-0.03124 0.0852,-0.01001 0.1704,-0.0197 0.25565,-0.02906 0.0854,-0.0095 0.17076,-0.01866 0.25619,-0.0275 0.0854,-0.0088 0.17076,-0.0172 0.25619,-0.02531 0.0855,-0.0082 0.17112,-0.01608 0.25673,-0.02364 0.0854,-0.0075 0.17076,-0.0147 0.25619,-0.02156 0.0857,-0.0068 0.17148,-0.01324 0.25726,-0.01937 0.0855,-0.0063 0.17113,-0.0122 0.25673,-0.01781 0.0855,-0.0057 0.17113,-0.01108 0.25672,-0.01614 0.0857,-0.0048 0.1715,-0.0093 0.25727,-0.01344 0.0857,-0.0043 0.17149,-0.0082 0.25726,-0.01187 0.0857,-0.0038 0.1715,-0.0073 0.25727,-0.01042 0.0858,-0.0028 0.1715,-0.0052 0.25726,-0.0073 0.0859,-0.0024 0.17186,-0.0045 0.2578,-0.0062 0.0857,-0.0017 0.17151,-0.0031 0.25727,-0.0042 0.0858,-0.001 0.17151,-0.0017 0.25726,-0.0021 0.0499,-1.1e-4 0.0998,-1.1e-4 0.14963,0 0.0858,-1.4e-4 0.17151,4.4e-5 0.25726,5.52e-4 0.0859,7.08e-4 0.17187,0.0017 0.2578,0.0031 0.0858,0.0014 0.17152,0.0031 0.25727,0.0052 0.0858,0.0017 0.17152,0.0038 0.25726,0.0062 0.0859,0.0028 0.17189,0.0059 0.25781,0.0094 0.0858,0.0033 0.17152,0.0069 0.25726,0.01083 0.0856,0.0038 0.17117,0.0079 0.25673,0.01239 0.0858,0.0045 0.17152,0.0093 0.25726,0.01448 0.0858,0.0052 0.17153,0.01078 0.25727,0.01666 0.0856,0.0058 0.17117,0.0119 0.25672,0.01833 0.0856,0.0065 0.17118,0.01328 0.25673,0.02041 0.0854,0.0072 0.17082,0.01474 0.25619,0.0226 0.0856,0.0078 0.17118,0.01586 0.25673,0.02427 0.0854,0.0085 0.17082,0.01724 0.25618,0.02635 0.0853,0.009 0.17047,0.01836 0.25565,0.02802 0.0853,0.0097 0.17047,0.01974 0.25565,0.0301 0.0853,0.01044 0.17048,0.0212 0.25565,0.03229 0.0851,0.011 0.17012,0.02231 0.25512,0.03395 0.0851,0.01169 0.17012,0.02371 0.25511,0.03604 0.0849,0.01225 0.16976,0.02481 0.25457,0.0377 0.0849,0.01294 0.16977,0.02621 0.25458,0.03979 0.0847,0.01367 0.1694,0.02766 0.25403,0.04197 0.0846,0.01423 0.16905,0.02877 0.2535,0.04364 0.0846,0.01475 0.16905,0.02981 0.25349,0.0452 0.0846,0.01565 0.16906,0.03162 0.2535,0.04791 0.0842,0.016 0.16834,0.03232 0.25242,0.04895 0.0842,0.0169 0.16835,0.03412 0.25242,0.05166 0.084,0.01725 0.16799,0.03482 0.25189,0.0527 0.0838,0.01815 0.16763,0.03662 0.25134,0.05541 0.0838,0.01871 0.16764,0.03773 0.25134,0.05707 0.0837,0.01923 0.16728,0.03878 0.25081,0.05864 0.0835,0.01996 0.16692,0.04023 0.25027,0.06082 0.0833,0.02069 0.16657,0.04169 0.24973,0.06301 0.0831,0.02121 0.16621,0.04273 0.24919,0.06457 0.083,0.02177 0.16585,0.04385 0.24865,0.06624 0.0828,0.02246 0.1655,0.04523 0.24812,0.06832 0.0828,0.02319 0.1655,0.04669 0.24811,0.07051 0.0824,0.02354 0.16479,0.04739 0.24704,0.07155 0.0823,0.02444 0.16443,0.0492 0.2465,0.07426 0.0821,0.025 0.16407,0.05031 0.24596,0.07593 0.0821,0.02552 0.16408,0.05135 0.24597,0.07749 0.0817,0.02625 0.16335,0.05281 0.24488,0.07968 0.0815,0.02677 0.163,0.05385 0.24435,0.08124 0.0812,0.0275 0.16229,0.05531 0.24327,0.08342 0.0812,0.02802 0.16229,0.05635 0.24327,0.08499 0.0808,0.02858 0.16158,0.05746 0.2422,0.08665 0.0807,0.02931 0.16122,0.05892 0.24166,0.08884 0.0805,0.03 0.16086,0.06031 0.24111,0.09092 0.0803,0.03039 0.16051,0.06108 0.24058,0.09207 0.08,0.03108 0.15979,0.06247 0.23951,0.09415 0.0798,0.03181 0.15943,0.06392 0.23896,0.09634 0.0794,0.03216 0.15872,0.06462 0.23789,0.09738 0.0794,0.03306 0.15872,0.06642 0.23789,0.100088 0.0789,0.03341 0.15765,0.06712 0.23628,0.10113 0.0789,0.03414 0.15764,0.06858 0.23627,0.103317 0.0785,0.03469 0.15693,0.06967 0.2352,0.104952 0.0782,0.03522 0.15621,0.07074 0.23412,0.106556 0.078,0.03595 0.15586,0.07219 0.23358,0.108722 0.0776,0.03649 0.15515,0.07327 0.23251,0.110337 0.0775,0.03702 0.15479,0.07434 0.23197,0.111951 0.0771,0.03756 0.15407,0.07542 0.23089,0.113565 0.0769,0.03828 0.15372,0.07685 0.23035,0.115711 0.0764,0.03882 0.15265,0.07793 0.22875,0.117335 0.0764,0.03936 0.15264,0.079 0.22873,0.11894 0.0759,0.04008 0.15158,0.08044 0.22713,0.121095 0.0757,0.04044 0.15121,0.08117 0.22658,0.122179 0.0753,0.04116 0.1505,0.0826 0.22552,0.124324 0.0751,0.0417 0.15014,0.08368 0.22497,0.125949 0.0746,0.04224 0.14906,0.08475 0.22335,0.127552 0.0744,0.04277 0.14871,0.08583 0.22282,0.129167 0.0741,0.04332 0.148,0.08691 0.22175,0.130792 0.0737,0.04403 0.14727,0.08835 0.22066,0.132937 0.0734,0.04439 0.14657,0.08906 0.2196,0.13401 0.0732,0.04511 0.1462,0.0905 0.21905,0.136166 0.0726,0.04547 0.14513,0.09122 0.21743,0.137239 0.0723,0.04619 0.14442,0.09266 0.21636,0.139405 0.0721,0.04673 0.14406,0.09373 0.21582,0.141008 0.0716,0.04727 0.14299,0.09481 0.21421,0.142624 0.0714,0.04763 0.14263,0.09553 0.21367,0.143706 0.0709,0.04835 0.14156,0.09697 0.21205,0.145852 0.0707,0.04889 0.1412,0.09805 0.21152,0.147476 0.0702,0.04943 0.14013,0.09912 0.20991,0.149081 0.0698,0.04979 0.1394,0.09984 0.20882,0.150153 0.0694,0.05051 0.1387,0.101285 0.20776,0.15232 0.0691,0.05087 0.13797,0.102001 0.20666,0.153392 0.0687,0.05159 0.13727,0.103433 0.2056,0.155538 0.0682,0.05195 0.13619,0.104157 0.20398,0.156621 0.068,0.05249 0.13583,0.105233 0.20345,0.158235 0.0675,0.05303 0.13475,0.106312 0.20182,0.15985 0.0671,0.05357 0.13405,0.107386 0.20076,0.161466 0.0666,0.0541 0.13296,0.10847 0.19914,0.16308 0.0664,0.0545 0.13261,0.10918 0.1986,0.16415 0.0657,0.055 0.13117,0.11026 0.19645,0.16576 0.0655,0.0555 0.13081,0.11135 0.1959,0.16739 0.065,0.0561 0.12975,0.11242 0.1943,0.169 0.0646,0.0564 0.12902,0.11314 0.19322,0.17007 0.0643,0.0572 0.1283,0.11458 0.19213,0.17223 0.0637,0.0573 0.12724,0.11494 0.19053,0.17277 0.0632,0.0581 0.12616,0.11637 0.18891,0.17491 0.0628,0.0584 0.12545,0.1171 0.18784,0.176 0.0625,0.059 0.12473,0.11817 0.18676,0.17761 0.0619,0.0593 0.12366,0.11889 0.18515,0.17868 0.0616,0.0599 0.12293,0.11997 0.18406,0.1803 0.061,0.0604 0.12186,0.12105 0.18245,0.18192 0.0605,0.0608 0.12079,0.12177 0.18084,0.18299 0.0601,0.0611 0.12007,0.12249 0.17976,0.18407 0.0596,0.0619 0.119,0.12392 0.17815,0.18622 0.0593,0.062 0.11828,0.12428 0.17707,0.18676 0.0587,0.0626 0.11722,0.12536 0.17547,0.18837 0.0582,0.0631 0.11613,0.12644 0.17383,0.18999 0.0578,0.0635 0.11542,0.12716 0.17277,0.19106 0.0573,0.064 0.11434,0.12824 0.17115,0.19268 0.0568,0.0642 0.11326,0.12861 0.16953,0.19323 0.0564,0.0649 0.11256,0.13003 0.16847,0.19536 0.0559,0.0651 0.11148,0.1304 0.16684,0.19591 0.0553,0.0656 0.1104,0.13147 0.16523,0.19752 0.0548,0.066 0.10933,0.13219 0.16362,0.1986 0.0542,0.0665 0.10825,0.13328 0.16199,0.20022 0.0539,0.0669 0.10755,0.13399 0.16094,0.20129 0.0534,0.0673 0.10646,0.13471 0.1593,0.20237 0.0528,0.0676 0.10539,0.13543 0.1577,0.20344 0.0523,0.068 0.10432,0.13615 0.15609,0.20452 0.0517,0.0685 0.10323,0.13723 0.15445,0.20614 0.0512,0.0689 0.10217,0.13794 0.15286,0.2072 0.0508,0.0692 0.10145,0.13867 0.15177,0.20829 0.0501,0.0696 0.10001,0.13939 0.14962,0.20937 0.0498,0.07 0.0993,0.14011 0.14855,0.21044 0.0491,0.0703 0.0979,0.14083 0.1464,0.21152 0.0487,0.0709 0.0971,0.1419 0.14532,0.21312 0.048,0.071 0.0957,0.14227 0.14316,0.21368 0.0476,0.0714 0.095,0.14298 0.14208,0.21474 0.0469,0.072 0.0936,0.14407 0.13994,0.21637 0.0466,0.0721 0.0928,0.14442 0.13886,0.21689 0.0458,0.0725 0.0914,0.14514 0.1367,0.21797 0.0453,0.0729 0.0903,0.14587 0.13509,0.21906 0.0448,0.0732 0.0893,0.14658 0.13348,0.22012 0.0442,0.0736 0.0882,0.14731 0.13187,0.22121 0.0437,0.0739 0.0871,0.14803 0.13025,0.22229 0.0432,0.0741 0.086,0.14838 0.12862,0.22281 0.0426,0.0746 0.085,0.14947 0.12702,0.22444 0.0421,0.0748 0.0839,0.14982 0.1254,0.22496 0.0414,0.0752 0.0824,0.15054 0.12325,0.22605 0.0408,0.0754 0.0814,0.15091 0.12164,0.22659 0.0403,0.0757 0.0803,0.15162 0.12002,0.22766 0.0398,0.0761 0.0792,0.15235 0.11841,0.22875 0.0392,0.0765 0.0781,0.15306 0.11678,0.22981 0.0385,0.0766 0.0767,0.15342 0.11465,0.23035 0.038,0.077 0.0756,0.15414 0.11302,0.23143 0.0374,0.0772 0.0746,0.15451 0.11141,0.23198 0.0367,0.0775 0.0731,0.15522 0.10926,0.23304 0.0364,0.0779 0.0724,0.15594 0.10818,0.23412 0.0356,0.0781 0.071,0.15631 0.10602,0.23466 0.0349,0.0783 0.0695,0.15667 0.10384,0.2352 0.0346,0.0786 0.0688,0.15738 0.1028,0.23627 0.0338,0.079 0.0674,0.15811 0.10061,0.23736 0.0333,0.079 0.0663,0.15811 0.0991,0.23735 0.0326,0.0795 0.0649,0.15918 0.0969,0.23896 0.0321,0.0795 0.0638,0.15919 0.0953,0.23897 0.0315,0.0799 0.0627,0.15991 0.0936,0.24004 0.0308,0.0801 0.0613,0.16027 0.0916,0.24058 0.0303,0.0803 0.0602,0.16063 0.0899,0.24112 0.0295,0.0806 0.0588,0.16135 0.0877,0.24219 0.029,0.0808 0.0577,0.16171 0.0861,0.24273 0.0285,0.081 0.0566,0.16208 0.0845,0.24328 0.0278,0.0812 0.0552,0.16243 0.0824,0.2438 0.0272,0.0815 0.0541,0.16316 0.0807,0.24489 0.0265,0.0815 0.0527,0.16316 0.0786,0.24489 0.026,0.0819 0.0516,0.16388 0.077,0.24596 0.0252,0.0819 0.0502,0.16388 0.0748,0.24596 0.0247,0.0823 0.0491,0.1646 0.0732,0.24704 0.0242,0.0824 0.048,0.16496 0.0716,0.24758 0.0235,0.0824 0.0466,0.16497 0.0695,0.24758 0.0227,0.0828 0.0452,0.16568 0.0673,0.24864 0.0222,0.083 0.0441,0.16605 0.0656,0.2492 0.0217,0.083 0.043,0.16605 0.0641,0.24919 0.0209,0.0833 0.0416,0.16677 0.0619,0.25027 0.0202,0.0833 0.0402,0.16677 0.0598,0.25027 0.0197,0.0835 0.0391,0.16713 0.0581,0.2508 0.0192,0.0837 0.038,0.1675 0.0566,0.25135 0.0184,0.0839 0.0366,0.16785 0.0544,0.25188 0.0177,0.0839 0.0351,0.16785 0.0522,0.25188 0.0172,0.0841 0.0341,0.16822 0.0506,0.25242 0.0165,0.0843 0.0326,0.16858 0.0484,0.25296 0.0159,0.0843 0.0316,0.16858 0.0469,0.25296 0.0152,0.0846 0.0301,0.1693 0.0447,0.25403 0.0147,0.0845 0.029,0.16895 0.043,0.2535 0.014,0.0848 0.0276,0.16967 0.0409,0.25458 0.0132,0.0848 0.0262,0.16966 0.0387,0.25457 0.0127,0.0848 0.0251,0.16967 0.0372,0.25458 0.012,0.085 0.0237,0.17003 0.035,0.25511 0.0114,0.0852 0.0225,0.17039 0.0333,0.25565 0.0107,0.085 0.0211,0.17003 0.0312,0.25511 0.01,0.0854 0.0197,0.17075 0.0291,0.25618 0.01,0.0852 0.0186,0.17041 0.0274,0.25566 0.009,0.0855 0.0172,0.17112 0.0253,0.25673 0.008,0.0854 0.0161,0.17076 0.0236,0.25619 0.007,0.0855 0.0147,0.17112 0.0216,0.25672 0.007,0.0855 0.0136,0.17113 0.0199,0.25673 0.006,0.0855 0.0122,0.17113 0.0178,0.25673 0.005,0.0857 0.0107,0.17149 0.0156,0.25726 0.005,0.0856 0.009,0.17113 0.0134,0.25672 0.004,0.0857 0.008,0.1715 0.0119,0.25727 0.004,0.0857 0.007,0.17149 0.0104,0.25726 0.003,0.0859 0.006,0.17186 0.008,0.2578 0.002,0.0858 0.004,0.17151 0.006,0.25727 0.002,0.0858 0.003,0.17151 0.004,0.25727 0.001,0.0859 5.3e-4,0.57906 9e-4,0.665 -0.0824,-29.010215 -23.62171,-52.891273 -52.632042,-52.891359 h -0.05274 z"
             sodipodi:nodetypes="ccccccccccccccccccccccccccccccccccccccsccccccccccsccccscccccscscssccccscsscccccccccccsccccsscccccccccccccsccsccsccscssscsccccccsccccccccscccccccscsscscscccccccsccccccccccsccccsccccccccccccccccccccccccccccccsssccsssccccccccccccccccccccccccccccccccccccsccccccccsccccsscccccccccccccccccccsccccccsccccccssccsscccsssccscssssscccccsssssscscccccccccsccsscccscscsccccccccccscsccscscccccccccccssccccccccccccccccccccscccccccsssccssccccccccccsccccsccccccccccccccccccscccccccsccccscccscccscsccsccsscssscsccccccsccscccscccccscccsssccsccccssccscccccccccccssccccccccccsscccccccscccccsccscccccccccccccccccccccccccccccccccccccccccccccccccccscccccccccccccccccccccccccccccccccccccccccccccccsccccccccssscscscccccccccsccccccccccccccccccsccccccccccssscscccccccccccsccssscsccccccccccsssscccccssscsccccccccccsccccccssscccscccccccccccccccccccscccccccccccccsccscc" />
        </g>
      </g>
      <text
         xml:space="preserve"
         style="font-style:normal;font-weight:normal;font-size:10.5833px;line-height:1.25;font-family:sans-serif;fill:#000000;fill-opacity:1;stroke:none;stroke-width:0.264583"
         x="101.69636"
         y="153.41663"
         id="text918"><tspan
           sodipodi:role="line"
           id="tspan916"
           x="101.69636"
           y="153.41663"
           style="stroke-width:0.264583" /></text>
      <g
         aria-label="minimalCLOTH"
         id="text926"
         style="font-size:8.03475px;line-height:1.25;font-family:Dyuthi;-inkscape-font-specification:'Dyuthi, Normal';fill:#a9a9a9;fill-opacity:1;stroke-width:0.20087">
        <path
           d="M 18.857314,11.1027 H 18.343373 V 8.9802394 q 0,-0.5021719 -0.215777,-0.7611042 -0.215777,-0.2589324 -0.553174,-0.2589324 -0.533558,0 -0.655177,0.3727057 -0.117697,0.3727057 -0.117697,0.6237916 V 11.1027 H 16.287607 V 8.9802394 q 0,-0.5021719 -0.215777,-0.7611042 -0.215777,-0.2589324 -0.651255,-0.2589324 -0.431553,0 -0.553173,0.3844753 -0.12162,0.3805522 -0.12162,0.6355613 V 11.1027 H 14.23184 V 7.5364953 h 0.482556 l 0.03139,0.4237075 q 0.137313,-0.2236234 0.357013,-0.360936 0.2197,-0.1412359 0.502172,-0.1451591 0.282471,-0.00392 0.557097,0.1569287 0.278548,0.1569287 0.447246,0.4786326 0.168699,-0.3217039 0.443324,-0.4786326 0.278549,-0.1569287 0.545327,-0.1569287 0.266779,0 0.486479,0.094157 0.223624,0.094157 0.498249,0.396245 0.274625,0.2981646 0.274625,1.0121902 z"
           style="font-style:normal;font-variant:normal;font-weight:normal;font-stretch:normal;font-family:Meera;-inkscape-font-specification:Meera;stroke-width:0.20087"
           id="path910" />
        <path
           d="m 19.485029,6.8499322 q 0,-0.3452432 0.357013,-0.3452432 0.357013,0 0.357013,0.3452432 0,0.1961609 -0.105927,0.2785484 -0.102004,0.082388 -0.251086,0.082388 -0.149082,0 -0.255009,-0.082388 -0.102004,-0.082387 -0.102004,-0.2785484 z M 20.12059,11.1027 H 19.606649 V 7.5364953 h 0.513941 z"
           style="font-style:normal;font-variant:normal;font-weight:normal;font-stretch:normal;font-family:Meera;-inkscape-font-specification:Meera;stroke-width:0.20087"
           id="path912" />
        <path
           d="m 21.340711,7.9602028 q 0.321704,-0.5060951 0.988651,-0.5060951 0.57279,0 0.976881,0.3727057 0.404092,0.3687825 0.404092,1.1298867 V 11.1027 H 23.196393 V 8.9880859 q 0,-0.4982487 -0.270702,-0.7611043 -0.266779,-0.2667788 -0.655177,-0.2667788 -0.388399,0 -0.659101,0.2667788 -0.270702,0.2667788 -0.270702,0.7611043 V 11.1027 H 20.82677 V 7.5364953 h 0.482555 z"
           style="font-style:normal;font-variant:normal;font-weight:normal;font-stretch:normal;font-family:Meera;-inkscape-font-specification:Meera;stroke-width:0.20087"
           id="path914" />
        <path
           d="m 24.338049,6.8499322 q 0,-0.3452432 0.357013,-0.3452432 0.357013,0 0.357013,0.3452432 0,0.1961609 -0.105927,0.2785484 -0.102004,0.082388 -0.251086,0.082388 -0.149082,0 -0.255009,-0.082388 -0.102004,-0.082387 -0.102004,-0.2785484 z M 24.973611,11.1027 H 24.459669 V 7.5364953 h 0.513942 z"
           style="font-style:normal;font-variant:normal;font-weight:normal;font-stretch:normal;font-family:Meera;-inkscape-font-specification:Meera;stroke-width:0.20087"
           id="path916" />
        <path
           d="M 30.305264,11.1027 H 29.791322 V 8.9802394 q 0,-0.5021719 -0.215777,-0.7611042 -0.215777,-0.2589324 -0.553174,-0.2589324 -0.533557,0 -0.655177,0.3727057 -0.117696,0.3727057 -0.117696,0.6237916 V 11.1027 H 27.735556 V 8.9802394 q 0,-0.5021719 -0.215777,-0.7611042 -0.215777,-0.2589324 -0.651254,-0.2589324 -0.431554,0 -0.553174,0.3844753 -0.12162,0.3805522 -0.12162,0.6355613 V 11.1027 H 25.67979 V 7.5364953 h 0.482556 l 0.03139,0.4237075 q 0.137313,-0.2236234 0.357013,-0.360936 0.2197,-0.1412359 0.502172,-0.1451591 0.282472,-0.00392 0.557097,0.1569287 0.278548,0.1569287 0.447247,0.4786326 0.168698,-0.3217039 0.443323,-0.4786326 0.278549,-0.1569287 0.545328,-0.1569287 0.266779,0 0.486479,0.094157 0.223623,0.094157 0.498248,0.396245 0.274626,0.2981646 0.274626,1.0121902 z"
           style="font-style:normal;font-variant:normal;font-weight:normal;font-stretch:normal;font-family:Meera;-inkscape-font-specification:Meera;stroke-width:0.20087"
           id="path918" />
        <path
           d="m 32.270795,7.9052778 q -0.608098,0 -0.733641,0.5610201 L 31.031058,8.3289853 q 0.215777,-0.6394845 0.639485,-0.7571811 0.431554,-0.1176965 0.674793,-0.1176965 0.24324,0 0.498249,0.090234 0.258932,0.086311 0.57279,0.3727057 0.317781,0.2824717 0.317781,0.9925741 V 11.1027 h -0.498249 l -0.03139,-0.435477 q -0.176545,0.223623 -0.466863,0.364859 -0.290318,0.137313 -0.600252,0.137313 -0.309934,0 -0.541404,-0.07846 -0.227547,-0.07846 -0.486479,-0.302088 -0.255009,-0.223624 -0.255009,-0.714026 0,-0.5492503 0.431554,-0.8748774 0.431554,-0.3295503 0.98865,-0.3295503 0.557097,0 0.91411,0.2079306 V 8.9017751 q 0,-0.7650275 -0.368782,-0.8788008 -0.364859,-0.1176965 -0.549251,-0.1176965 z m 0.918033,1.8949141 V 9.5373363 Q 33.00836,9.3882541 32.721965,9.3529451 q -0.282471,-0.035309 -0.388398,-0.035309 -0.45117,0 -0.686563,0.2040074 -0.235393,0.2040073 -0.235393,0.5374805 0,0.651254 0.819952,0.651254 0.408015,0 0.68264,-0.258932 0.274625,-0.262856 0.274625,-0.6512541 z"
           style="font-style:normal;font-variant:normal;font-weight:normal;font-stretch:normal;font-family:Meera;-inkscape-font-specification:Meera;stroke-width:0.20087"
           id="path920" />
        <path
           d="m 34.785578,10.396521 q 0,0.235393 0.19616,0.235393 h 0.388399 V 11.1027 h -0.498249 q -0.588482,0 -0.588482,-0.745411 V 6.3634532 h 0.502172 z"
           style="font-style:normal;font-variant:normal;font-weight:normal;font-stretch:normal;font-family:Meera;-inkscape-font-specification:Meera;stroke-width:0.20087"
           id="path922" />
        <path
           d="m 38.551867,11.165472 q -0.04708,0 -0.117697,-0.01177 -1.204428,-0.05885 -1.851759,-0.729718 -0.651254,-0.6747939 -0.651254,-1.7497556 0,-1.0749616 0.702256,-1.7458319 0.702256,-0.6747934 1.800757,-0.7728739 0.113773,-0.015693 0.172622,-0.00785 0.05885,-0.00785 0.306011,0.015693 0.247162,0.019616 0.588482,0.1333894 0.302088,0.086311 0.302088,0.4158611 -0.0078,0.3138574 -0.306011,0.415861 -0.141236,0.070618 -0.388398,-0.043155 -0.215777,-0.1020036 -0.502172,-0.09808 -0.615946,0 -1.043576,0.486479 -0.427631,0.5021719 -0.431554,1.188735 0,0.6865631 0.427631,1.1730421 0.431553,0.4864791 1.047499,0.4864791 0.286395,0 0.506095,-0.09416 0.2197,-0.09416 0.376629,-0.04708 h 0.01177 q 0.329551,0.102004 0.325627,0.443324 -0.0039,0.345243 -0.337396,0.42763 -0.329551,0.08631 -0.710103,0.102004 -0.07062,0.01569 -0.113773,0.01177 0,0 -0.113773,0 z"
           style="fill:#5e7c6e;fill-opacity:1;stroke-width:0.20087"
           id="path924" />
        <path
           d="m 40.93326,6.1908316 q 0.302088,0 0.482556,0.1686984 0.180468,0.1686983 0.176545,0.415861 l -0.06669,3.405353 1.686984,-0.07454 q 0.184391,-0.01177 0.321703,0.133389 0.137313,0.141236 0.13339,0.325627 v 0.0078 q 0,0.258932 -0.129466,0.396245 -0.13339,0.133389 -0.325627,0.133389 h -2.255851 q -0.227546,0 -0.388398,-0.156928 -0.156929,-0.156929 -0.156929,-0.388399 V 6.775391 q 0,-0.235393 0.168698,-0.4080146 0.168699,-0.1765448 0.34132,-0.1765448 z"
           style="fill:#5e7c6e;fill-opacity:1;stroke-width:0.20087"
           id="path926" />
        <path
           d="m 45.82159,10.106203 q 0.376629,0.470786 0.870954,0.470786 0.494326,0 0.890571,-0.46294 0.396245,-0.4629393 0.396245,-1.7379851 0,-0.6473309 -0.396245,-1.1102706 -0.396245,-0.4629397 -0.890571,-0.4629397 -0.494325,0 -0.867031,0.4668629 -0.376629,0.4668629 -0.376629,1.1063474 -0.0039,1.2593529 0.372706,1.7301391 z m 1.059269,-3.9467572 q 0.996497,0.125543 1.659521,0.7885668 0.663024,0.6630238 0.663024,1.7301391 0,1.0671152 -0.627715,1.7419083 -0.623792,0.670871 -1.69483,0.733642 -0.07454,0.0039 -0.09808,0.01177 -0.02354,0.0078 -0.03531,0.0039 h -0.0667 q -0.01569,0 -0.03531,0 -0.02354,0.0039 -0.09808,-0.01569 -1.102424,-0.105927 -1.710523,-0.749335 -0.608099,-0.6434072 -0.608099,-1.7262153 0,-1.0788849 0.68264,-1.7536784 0.68264,-0.6747934 1.635982,-0.7650275 0.113773,-0.01177 0.168698,-0.015693 0.05885,0.00392 0.164776,0.015693 z"
           style="fill:#5e7c6e;fill-opacity:1;stroke-width:0.20087"
           id="path928" />
        <path
           d="m 49.591802,6.7871607 q 0,0 0,-0.015693 -0.05493,-0.2432395 0.06669,-0.4001682 0.12162,-0.1569287 0.317781,-0.1569287 h 3.009108 q 0.200084,0 0.325627,0.1647751 0.125543,0.1647752 0.05885,0.3923218 v 0.015693 q -0.03139,0.1294662 -0.149082,0.2197002 -0.12162,0.090234 -0.235393,0.078464 l -0.902341,-0.070618 v 3.5622817 q 0,0.255009 -0.172621,0.431554 -0.172622,0.172622 -0.431554,0.172622 h -0.0039 q -0.251086,0 -0.423708,-0.172622 -0.172621,-0.172622 -0.172621,-0.431554 V 7.0147073 l -0.90234,0.070618 q -0.13339,0.01177 -0.247163,-0.090234 -0.113773,-0.09808 -0.137313,-0.2079305 z"
           style="fill:#5e7c6e;fill-opacity:1;stroke-width:0.20087"
           id="path930" />
        <path
           d="m 55.115691,7.9876653 h 1.647752 V 6.7636214 q 0,-0.2432395 0.168698,-0.4158611 0.164775,-0.1726216 0.411938,-0.1726216 h 0.0078 q 0.24324,0 0.411938,0.1726216 0.172622,0.1726216 0.172622,0.4158611 v 3.8015976 q 0,0.24324 -0.172622,0.415861 -0.172621,0.168699 -0.411938,0.168699 h -0.0078 q -0.247163,0 -0.415861,-0.168699 -0.164775,-0.172621 -0.164775,-0.415861 V 8.9527769 h -1.647752 v 1.6124421 q 0,0.24324 -0.172621,0.415861 -0.168699,0.168699 -0.415861,0.168699 h -0.01177 q -0.243239,0 -0.411938,-0.168699 -0.168698,-0.172621 -0.168698,-0.415861 V 6.7636214 q 0,-0.2432395 0.168698,-0.4158611 0.168699,-0.1726216 0.411938,-0.1726216 h 0.01177 q 0.243239,0 0.415861,0.1726216 0.172621,0.1726216 0.172621,0.4158611 z"
           style="fill:#5e7c6e;fill-opacity:1;stroke-width:0.20087"
           id="path932" />
      </g>
    </g>
  </g>
</svg>
